<?xml version="1.0" encoding="UTF-8" standalone="no"?>
<!-- Created with Inkscape (http://www.inkscape.org/) -->

<svg
   width="183.06104mm"
   height="140.31183mm"
   viewBox="0 0 183.06104 140.31183"
   version="1.1"
   id="svg1"
   xml:space="preserve"
   inkscape:export-filename="siro.svg"
   inkscape:export-xdpi="96"
   inkscape:export-ydpi="96"
   sodipodi:docname="siro.svg"
   inkscape:version="1.4.2 (ebf0e940, 2025-05-08)"
   xmlns:inkscape="http://www.inkscape.org/namespaces/inkscape"
   xmlns:sodipodi="http://sodipodi.sourceforge.net/DTD/sodipodi-0.dtd"
   xmlns="http://www.w3.org/2000/svg"
   xmlns:svg="http://www.w3.org/2000/svg"><sodipodi:namedview
     id="namedview1"
     pagecolor="#ffffff"
     bordercolor="#000000"
     borderopacity="0.25"
     inkscape:showpageshadow="2"
     inkscape:pageopacity="0.0"
     inkscape:pagecheckerboard="0"
     inkscape:deskcolor="#d1d1d1"
     inkscape:document-units="mm"
     inkscape:zoom="0.80228532"
     inkscape:cx="415.0643"
     inkscape:cy="276.70954"
     inkscape:window-width="1192"
     inkscape:window-height="605"
     inkscape:window-x="0"
     inkscape:window-y="25"
     inkscape:window-maximized="0"
     inkscape:current-layer="svg1" /><defs
     id="defs1" /><path
     style="fill:none;fill-opacity:0;stroke:#000000;stroke-width:1.365"
     d="m 117.26589,102.50654 c 0.25497,0 0.76491,0.25497 0.76491,0 0,-0.25497 -1.01988,0 -0.76491,0 0.86839,0 2.63461,0.15587 3.44211,-0.38246 0.29427,-0.19618 0.46689,-0.65812 0.57368,-0.76491 0.0104,-0.0104 0.56332,-0.3721 0.57368,-0.38246 0.0451,-0.0451 -0.0451,-0.14615 0,-0.19122 0.0901,-0.0901 0.29231,0.0901 0.38246,0 0.0451,-0.0451 -0.0451,-0.14616 0,-0.19123 0.0884,-0.0884 0.45822,0.0577 0.57368,0 0.0806,-0.0403 0.1106,-0.15091 0.19123,-0.19123 0.77033,-0.38517 3.66771,0.73053 4.01578,0.38246 0.39566,-0.39566 -0.60461,0.0155 0.19123,-0.38246 0.56615,-0.28307 1.04561,-0.854376 1.52982,-1.338586 0.19038,-0.19038 0.45157,-0.13822 0.57369,-0.38246 0.15649,-0.31299 0.18143,-0.50341 0.57368,-0.76491 0.053,-0.0354 0.14615,0.0451 0.19123,0 0.0451,-0.0451 -0.0451,-0.14616 0,-0.19123 0.18667,-0.18667 1.04039,-0.42458 1.33859,-0.57368 0.30621,-0.1531 4.53213,0.0669 4.7807,0.19122 0.0806,0.0403 0.10231,0.17641 0.19122,0.19123 0.11395,0.019 1.6341,0.087 1.72106,0 0.0451,-0.0451 -0.0451,-0.14615 0,-0.19123 0.0884,-0.0884 0.45822,0.0577 0.57368,0 0.16126,-0.0806 0.2212,-0.30182 0.38245,-0.38245 0.58987,-0.29493 1.50648,-0.94835 2.10351,-1.14737 0.34859,-0.11619 1.49922,-0.35185 1.72105,-0.57368 0.0765,-0.0765 0.10357,-0.24301 0.38246,-0.38246 0.11402,-0.057 0.29231,0.0901 0.38245,0 0.0451,-0.0451 -0.0451,-0.14615 0,-0.19122 0.0879,-0.0879 0.61453,-0.30727 0.76491,-0.38246 0.20423,-0.10211 0.17824,0.10211 0.38246,0 0.32883,-0.16441 0.62731,-0.21804 0.95614,-0.38246 0.6952,-0.3476 3.57512,0.25774 4.20701,0.57369 0.41958,0.20979 1.42083,0 1.91228,0 0.18129,0 0.6061,0.0794 0.76491,0 0.27889,-0.13945 0.30591,-0.30591 0.38245,-0.38246 0.0451,-0.0451 0.14616,0.0451 0.19124,0 0.0451,-0.0451 -0.0451,-0.14615 0,-0.19123 0.0451,-0.0451 0.14615,0.0451 0.19122,0 0.0451,-0.0451 -0.0451,-0.14615 0,-0.19122 0.0901,-0.0901 0.26843,0.057 0.38246,0 0.35798,-0.17899 0.79651,-0.39826 1.14736,-0.57369 0.54349,-0.27174 0.83288,-0.89451 1.3386,-1.14736 0.057,-0.0285 0.14616,0.0451 0.19123,0 0.0451,-0.0451 -0.0451,-0.14616 0,-0.19123 0.0451,-0.0451 0.14615,0.0451 0.19122,0 0.0451,-0.0451 -0.0451,-0.14616 0,-0.19123 0.0884,-0.0884 0.45823,0.0577 0.57369,0 0.54838,-0.27419 1.17266,-0.29949 1.72105,-0.57368 0.7354,-0.3677 2.70985,0.36612 3.4421,0 0.15038,-0.0752 0.67699,-0.29454 0.76491,-0.38246 0.1071,-0.10709 0.10987,-0.29159 0.38246,-0.38246 0.12368,-0.0412 1.11822,-0.16208 1.14736,-0.19122 0.14455,-0.14455 0.083,-0.38246 0.38246,-0.38246 0.0163,-0.0261 1.57208,-0.0423 1.91228,-0.38245 0.0451,-0.0451 -0.0451,-0.14616 0,-0.19123 0.0849,-0.0849 0.9064,-0.52394 0.95614,-0.57368 0.0451,-0.0451 -0.0285,-0.13422 0,-0.19123 0.19123,-0.38246 0.76491,-0.57368 0.95614,-0.95614 0.0285,-0.057 -0.0451,-0.14615 0,-0.19123 0.0451,-0.0451 0.14615,0.0451 0.19123,0 0.0779,-0.0779 0.90455,-1.04419 0.95613,-1.14736 0.0285,-0.057 -0.0451,-0.14616 0,-0.19123 0.0451,-0.0451 0.12749,0 0.19123,0 0.0637,-0.0637 0.14123,-0.11622 0.19123,-0.19123 0.48264,-0.72396 1.01217,-1.22207 1.52982,-1.91228 0.1379,-0.18386 0.27968,-0.36812 0.38246,-0.57368 0.0285,-0.057 -0.0451,-0.14616 0,-0.19123 0.11748,-0.11748 0.44562,-0.12633 0.57368,-0.38245 0.0506,-0.10111 0.50723,-0.88969 0.57369,-0.95614 0.39565,-0.39566 -0.0155,0.60461 0.38245,-0.19123 0.22171,-0.44342 0.54233,-0.89343 0.76491,-1.3386 0.10752,-0.21503 0.49818,-0.34716 0.57369,-0.57368 0.0403,-0.12094 -0.0403,-0.26151 0,-0.38246 0.057,-0.17103 0.28244,-0.23244 0.38245,-0.38245 0.23542,-0.35314 1.03273,-1.75961 1.14737,-2.10351 0.0403,-0.12094 -0.0309,-0.25877 0,-0.38245 0.12645,-0.50581 0.72809,-1.34217 0.95614,-1.91228 0.36442,-0.91107 0.91812,-1.83625 1.33859,-2.67719 0.0806,-0.16126 0.32544,-0.21142 0.38246,-0.38246 0.0403,-0.12094 -0.0403,-0.26151 0,-0.38245 0.0389,-0.1167 0.34355,-0.45699 0.38245,-0.57369 0.3628,-1.08838 0.30009,-2.34771 0.57369,-3.4421 0.0932,-0.3726 -0.16895,-1.0007 0,-1.33859 0.0403,-0.0806 0.16272,-0.10571 0.19122,-0.19123 0.20825,-0.62474 -0.12986,-1.4542 0,-2.1035 0.0395,-0.19766 0.14234,-0.37813 0.19123,-0.57369 0.16216,-0.64861 -0.21068,-1.47146 0,-2.1035 0.0285,-0.0855 0.16272,-0.10571 0.19123,-0.19123 0.0889,-0.26674 -0.0552,-0.68004 0,-0.95614 0.23928,-1.19642 0.19123,-2.39886 0.19123,-3.63333 -0.53775,-1.2462 -0.61414,-2.37564 -1.14737,-3.4421 -0.0765,-0.15298 0.0765,-0.4207 0,-0.57368 -0.27572,-0.55144 -0.74892,-1.09939 -0.95614,-1.72105 -0.13997,-0.41993 -0.31948,-0.9573 -0.57368,-1.3386 -0.10001,-0.15001 -0.32544,-0.21142 -0.38246,-0.38246 -0.0403,-0.12094 0.0403,-0.26151 0,-0.38245 -0.066,-0.19808 -0.2876,-0.38397 -0.38245,-0.57368 -0.0981,-0.1961 -0.0932,-0.56882 -0.19123,-0.76492 -0.0949,-0.18971 -0.31643,-0.3756 -0.38246,-0.57368 -0.0403,-0.12094 0.0403,-0.26151 0,-0.38245 -0.16512,-0.49538 -0.59511,-1.02043 -0.76491,-1.52983 -0.0403,-0.12094 0.0403,-0.26151 0,-0.38245 -0.073,-0.21897 -0.27993,-0.55986 -0.38245,-0.76491 -0.0806,-0.16126 -0.30183,-0.2212 -0.38246,-0.38246 -0.25221,-0.50443 -0.6275,-0.93828 -0.95614,-1.52982 -0.22883,-0.4119 -0.37292,-0.93708 -0.57368,-1.3386 -0.0806,-0.16125 -0.30183,-0.2212 -0.38246,-0.38245 -0.10211,-0.20422 0.10211,-0.17824 0,-0.38246 -0.13151,-0.26302 -0.74109,-1.01602 -0.95614,-1.33859 -0.57037,-0.85557 -2.24223,-2.26849 -3.05964,-2.67719 -0.68089,-0.34045 -1.0864,-1.29795 -1.72105,-1.72105 -0.86738,-0.57826 -1.767,-1.07473 -2.67719,-1.52983 -0.16126,-0.0806 -0.2212,-0.30182 -0.38246,-0.38245 -0.19609,-0.0981 -0.56881,-0.0932 -0.76491,-0.19123 -0.16126,-0.0806 -0.21141,-0.32544 -0.38245,-0.38245 -0.25132,-0.0838 -0.54726,-0.0461 -0.76492,-0.19123 -1.35037,-0.90025 -2.74068,-1.7528 -4.20701,-2.48596 -0.93588,-0.46795 -1.59271,-1.27443 -2.48596,-1.72105 -0.11403,-0.057 -0.26843,0.057 -0.38245,0 -1.33804,-0.66902 -3.26598,0.0881 -4.58947,-0.57369 -0.24895,-0.12447 -0.63256,0.0662 -1.14737,-0.19123 -0.25497,-0.12748 -0.70117,0.12749 -0.95614,0 -0.27889,-0.13944 -0.30591,-0.30591 -0.38245,-0.38245 -0.0902,-0.0901 -0.26843,0.057 -0.38246,0 -0.22947,-0.11474 -0.34421,-0.45895 -0.57368,-0.57369 -0.11403,-0.057 -0.26843,0.057 -0.38246,0 -0.30596,-0.15298 -0.45895,-0.61192 -0.76491,-0.76491 -0.1159,-0.0579 -0.49355,-0.11109 -0.57368,-0.19122 -0.1071,-0.1071 -0.10987,-0.2916 -0.38246,-0.38246 -0.18141,-0.0605 -0.40264,0.0855 -0.57368,0 -0.95125,-0.47562 -3.40946,-0.57368 -4.58947,-0.57368 -0.60068,0.59884 -1.57476,-0.43122 -2.29473,-0.19123 -0.19808,0.066 -0.38398,0.2876 -0.57369,0.38245 -0.11402,0.057 -0.29231,-0.0901 -0.38245,0 -0.0451,0.0451 0.0451,0.14616 0,0.19123 -0.0902,0.0902 -0.26152,-0.0403 -0.38246,0 -0.28215,0.0941 -0.52433,0.30227 -0.76491,0.38246 -0.12094,0.0403 -0.25745,-0.025 -0.38246,0 -0.58743,0.11748 -1.16881,0.3896 -1.72105,0.57368 -0.58482,0.19494 -1.34662,0.003 -1.91227,0.19123 -0.13522,0.0451 -0.24418,0.15666 -0.38246,0.19123 -0.44399,0.11099 -1.07007,0 -1.52982,0 -0.7371,0 -3.01144,0.20729 -3.63333,0 -0.0855,-0.0285 -0.1106,-0.15092 -0.19123,-0.19123 -0.20549,-0.10275 -0.54366,0.0738 -0.76491,0 -0.13522,-0.0451 -0.24418,-0.15666 -0.38246,-0.19123 -0.24077,-0.0602 -0.72739,0.11438 -0.95614,0 -0.0806,-0.0403 -0.12748,-0.12748 -0.19122,-0.19123 -0.19123,0 -0.38817,0.0464 -0.57369,0 -0.0874,-0.0219 -0.10377,-0.16936 -0.19122,-0.19122 -0.63743,-0.15936 -0.42496,0.10623 -0.95614,0 -0.82733,-0.16547 -3.41832,-0.45413 -4.20702,-0.19123 -0.39904,0.13301 -0.55709,0.44067 -0.95613,0.57368 -0.9544,0.31813 -1.98849,0.51618 -2.86842,0.95614 -0.11403,0.057 -0.26843,-0.057 -0.38246,0 -0.18971,0.0949 -0.3756,0.31643 -0.57368,0.38246 -0.40158,0.13386 -0.93702,-0.13386 -1.3386,0 -0.0855,0.0285 -0.11059,0.15091 -0.19122,0.19122 -0.20398,0.10199 -0.56094,-0.10198 -0.76491,0 -0.0806,0.0403 -0.10571,0.16273 -0.19123,0.19123 -0.52288,0.17429 -0.78416,-0.086 -1.3386,0.19123 -0.46839,0.23419 -1.21973,-0.16711 -1.72105,0 -0.37821,0.12607 -0.6384,0.22358 -0.95614,0.38246 -0.11402,0.057 -0.26843,-0.057 -0.38245,0 -0.5869,0.29345 -1.47028,0.93629 -2.10351,1.14736 -0.12094,0.0403 -0.25878,-0.0309 -0.38245,0 -0.56926,0.14232 -1.50214,0.94691 -2.10351,1.14737 -0.0605,0.0202 -0.14616,-0.0451 -0.19123,0 -0.0956,0.0956 -0.0956,0.28684 -0.19123,0.38245 -0.0451,0.0451 -0.13075,-0.0202 -0.19122,0 -0.39263,0.13088 -0.55426,0.47322 -0.95614,0.57369 -0.682032,0.17051 -1.429592,0.34904 -2.103512,0.57368 -0.33402,0.11134 -0.48466,0.48027 -0.76491,0.57369 -0.12094,0.0403 -0.26151,-0.0403 -0.38246,0 -0.21897,0.073 -0.55986,0.27993 -0.76491,0.38245 -0.16125,0.0806 -0.2212,0.30183 -0.38245,0.38246 -0.29018,0.14509 -0.6466,0.17609 -0.95614,0.38245 -0.15001,0.10001 -0.23245,0.28245 -0.38246,0.38246 -0.16772,0.11181 -0.40596,0.0794 -0.57368,0.19123 -0.33093,0.22061 -0.59917,0.58642 -0.95614,0.76491 -0.18584,0.0929 -0.57907,0.0983 -0.76491,0.19122 -0.82228,0.41114 -1.77116,0.84536 -2.67719,1.14737 -0.45026,0.15009 -0.91694,0.17163 -1.3386,0.38246 -0.25612,0.12806 -0.26497,0.4562 -0.38245,0.57368 -0.0451,0.0451 -0.13422,-0.0285 -0.19123,0 -0.57905,0.28953 -0.92588,0.67412 -1.14737,1.3386 -0.70117,0.19123 -1.42048,0.32531 -2.103502,0.57368 -0.05991,0.0218 0.02851,0.13421 0,0.19123 -0.397922,0.79584 0.0132,-0.20443 -0.382456,0.19122 -0.06374,0.0637 -0.127485,0.50995 -0.191228,0.57369 -0.04507,0.0451 -0.146155,-0.0451 -0.191228,0 -0.09015,0.0901 0.05701,0.26843 0,0.38245 -0.05106,0.10211 -0.3314,0.28035 -0.382455,0.38246 -0.02851,0.057 0.04507,0.14615 0,0.19123 -0.04507,0.0451 -0.146155,-0.0451 -0.191228,0 -0.197351,0.19735 -0.277871,0.55574 -0.382456,0.76491 -0.109847,0.21969 -0.425558,0.37618 -0.573683,0.57368 -0.08964,0.11953 -0.354407,0.61873 -0.573684,0.76491 -0.504404,0.33627 -2.004394,1.47677 -2.294733,1.91228 -0.07906,0.1186 -0.09044,0.28167 -0.191228,0.38246 -0.100786,0.10078 -0.263861,0.11216 -0.382456,0.19123 -0.411722,0.27448 -2.374602,2.03208 -2.677189,2.48596 -0.524944,0.78741 -1.153162,1.53755 -1.721051,2.29473 -0.162262,0.21635 -0.423672,0.34867 -0.573683,0.57368 -0.233037,0.34956 -0.321856,0.8116 -0.573684,1.14737 -0.162262,0.21635 -0.423672,0.34867 -0.573683,0.57368 -0.305067,0.4576 -1.079727,2.03587 -1.338595,2.29474 -0.100786,0.10078 -0.28167,0.0904 -0.382456,0.19123 -0.158338,0.15833 -0.794997,1.58999 -0.956139,1.91227 -0.263794,0.52759 0.133374,2.20155 0,2.86842 -0.08561,0.42807 -0.449491,0.77479 -0.573683,1.14737 -0.04031,0.12094 0.03092,0.25878 0,0.38245 -0.194017,0.77607 -1.106517,1.27732 -1.529823,1.91228 -0.590692,0.88604 -1.232839,1.70077 -1.72105,2.67719 -0.382456,0.57368 -0.792632,1.12983 -1.147367,1.72105 -0.155015,0.25836 0,2.27634 0,2.67719 0,2.16725 0,4.3345 0,6.50175 0,1.39776 -0.245522,3.08799 0.191228,4.39824 0.09561,0.28684 -0.191228,0.19123 0,0.57368 0.08063,0.16126 0.301827,0.2212 0.382455,0.38246 0.107841,0.21568 0.107202,0.70406 0.191228,0.95614 0.18336,0.55007 0.702459,1.02246 0.956139,1.52982 0.139618,0.27923 0.609016,1.56515 0.764912,1.72105 0.04507,0.0451 0.146155,-0.0451 0.191227,0 0.07581,0.0758 0.442961,1.01664 0.573684,1.14737 0.04507,0.0451 0.146155,-0.0451 0.191228,0 0.06374,0.0637 0.127485,0.50994 0.191227,0.57368 0.04507,0.0451 0.146155,-0.0451 0.191228,0 0.09015,0.0901 -0.05701,0.26843 0,0.38246 0.08063,0.16125 0.325443,0.21141 0.382456,0.38245 0.04031,0.12094 -0.04031,0.26151 0,0.38246 0.02851,0.0855 0.150913,0.1106 0.191228,0.19122 0.05701,0.11403 -0.04031,0.26152 0,0.38246 0.135989,0.40797 0.39472,0.78944 0.573683,1.14737 0.09805,0.19609 0.09318,0.56881 0.191228,0.76491 0.145277,0.29055 0.47232,0.46082 0.573684,0.76491 0.06047,0.18141 -0.08552,0.40264 0,0.57368 0.198632,0.39727 0.418518,0.68188 0.573683,1.14737 0.04031,0.12094 -0.05701,0.26843 0,0.38246 0.26982,0.53964 0.676038,1.16084 0.956139,1.72105 0.05795,0.11589 0.111095,0.49355 0.191228,0.57368 0.04507,0.0451 0.146155,-0.0451 0.191228,0 0.04507,0.0451 -0.04507,0.14615 0,0.19123 0.01036,0.0104 0.563321,0.37209 0.573683,0.38245 0.09015,0.0902 -0.09014,0.29231 0,0.38246 0.06374,0.0637 0.509941,0.12748 0.573684,0.19123 0.04507,0.0451 -0.04507,0.14615 0,0.19122 0.09015,0.0901 0.29231,-0.0901 0.382455,0 0.04507,0.0451 -0.04507,0.14616 0,0.19123 0.09015,0.0901 0.29231,-0.0901 0.382456,0 0.04507,0.0451 -0.04507,0.14616 0,0.19123 0.09015,0.0901 0.29231,-0.0902 0.382456,0 0.04507,0.0451 -0.04507,0.14615 0,0.19123 0.09015,0.0901 0.268429,-0.057 0.382455,0 0.33947,0.16973 0.61667,0.40395 0.956139,0.57368 0.114027,0.057 0.26843,-0.057 0.382456,0 0.492903,0.24645 1.043612,0.33058 1.529823,0.57368 0.107643,0.0538 1.30934,1.08886 1.338594,1.14737 0.02851,0.057 -0.04507,0.14616 0,0.19123 0.04507,0.0451 0.134215,-0.0285 0.191228,0 0.581906,0.290946 1.10452,1.338586 1.721051,1.338586 0.590187,1.50669 2.007622,-0.27485 2.83487,0.13878 0.288207,0.1441 0.454039,0.35073 0.742247,0.49483 0.57306,0.28653 1.51355,0.38565 2.22674,0.74225 1.02969,0.51484 -0.2645,-0.0171 0.24742,0.49483 0.0119,0.0119 1.3102,0.6551 1.48449,0.74224 0.19793,0.099 0.54432,-0.099 0.74225,0 0.10432,0.0522 0.13677,0.21054 0.24741,0.24742 1.23216,0.41072 3.55062,-0.30095 5.19573,0.24742 0.2969,0.099 0.69277,-0.099 0.98967,0 0.28209,0.094 0.46015,0.4008 0.74224,0.49483 0.15648,0.0522 0.3473,-0.0738 0.49483,0 0.0738,0.0369 -0.0583,0.1891 0,0.24741 0.0694,0.0694 0.85422,0.44969 0.98967,0.49483 0.37112,0.12371 0.86595,-0.1237 1.23708,0 0.549912,0.18331 0.888542,0.34585 1.484492,0.49484 0.20533,0.0513 0.55482,-0.0937 0.74225,0 0.4243,0.21215 1.68549,0.51803 2.22674,0.24741 1.31377,-0.65689 2.91768,-1.08771 4.20606,-1.73191 0.38105,-0.19052 1.10345,-0.0569 1.4845,-0.24741 0.61383,-0.30692 1.13221,-0.93723 1.73191,-1.23708 0.14995,-0.075 0.63857,-0.14374 0.74225,-0.24742 0.0583,-0.0583 -0.0583,-0.1891 0,-0.24741 0.15693,-0.15694 0.78366,0.10299 0.98966,0 1.06675,-0.53338 2.81008,-0.17738 3.97709,-0.0373 z"
     id="path2"
     inkscape:label="face" /><path
     style="fill:none;fill-opacity:0;stroke:#000000;stroke-width:1.365"
     d="m 152.61492,25.761834 c -0.0589,-0.57824 -0.30619,-1.14363 -0.7178,-1.55524 -0.25837,-0.25837 -0.43086,-0.62223 -0.71781,-0.83744 -0.0713,-0.0535 -0.17621,-0.0566 -0.23926,-0.11963 -0.12611,-0.12611 -0.13227,-0.33587 -0.23927,-0.47854 -0.21618,-0.28824 -0.51861,-0.53865 -0.71781,-0.83744 -0.42125,-0.63188 -0.82453,-1.29984 -1.31597,-1.91414 -0.34364,-0.42955 -1.17636,-1.11642 -1.31597,-1.67488 -0.18478,-0.739098 -0.0166,-3.844867 -0.3589,-4.18718 -0.12094,-0.120933 -0.64065,-0.218339 -0.83744,-0.358902 -0.65171,-0.465508 -1.20475,-1.048036 -1.67487,-1.674873 -0.35517,-0.473557 -0.12728,-0.0076 -0.59817,-0.478536 -0.17674,-0.176742 -0.3383,-0.50745 -0.47854,-0.717804 -0.11963,-0.179451 -0.23927,-0.119634 -0.3589,-0.358902 -0.0357,-0.07134 0.0193,-0.161893 0,-0.239268 -0.0801,-0.320432 -0.30285,-0.6207387 -0.3589,-0.9570717 -0.0632,-0.378947 -0.10763,-2.201439 0,-2.631945 0.091,-0.363919 0.2152,-0.71745 0.3589,-1.076704 0.19509,-0.487735 0.2133,-1.045649 0.3589,-1.555242 0.0792,-0.277286 0.30548,-0.726326 0.47854,-0.957069 0.10151,-0.13535 0.26505,-0.218131 0.3589,-0.358902 0.0495,-0.0742 0.0566,-0.176215 0.11963,-0.239268 0.0631,-0.06305 0.16508,-0.07017 0.23927,-0.119634 0.3715,-0.247669 0.70495,-0.5896 1.0767,-0.837438 0.22675,-0.151159 0.57464,-0.30634 0.83744,-0.358902 0.0782,-0.01564 0.16522,0.02962 0.23927,0 0.1335,-0.0534 0.2303,-0.174966 0.3589,-0.23926805 0.1879,-0.09395 0.66354,-0.0925 0.95707,-0.239268 0.21603,-0.108014 1.45244,0 1.79451,0 0.79298,0 1.87948,-0.150492 2.63195,0 0.95311,0.190624 1.84204,0.44763805 2.75158,0.83743805 0.78432,0.336137 1.36672,1.054954 2.03377,1.555242 0.22766,0.170741 0.49015,0.307792 0.7178,0.478533 1.34655,1.009912 2.06366,2.534701 2.87122,3.947919 0.14267,0.249677 0.34993,0.460598 0.47853,0.717804 0.18071,0.361403 0.24932,0.812774 0.35891,1.196338 0.16164,0.5657527 0.48173,1.0927027 0.59817,1.6748757 0.0553,0.276503 0.0643,0.560932 0.11963,0.837438 0.0682,0.341101 0.27456,0.619691 0.3589,0.957069 0.1058,0.423199 0.0338,0.886854 0.11964,1.315974 0.0175,0.08744 0.0797,0.159512 0.11963,0.239268 0.0399,0.119634 0.0989,0.234511 0.11963,0.358902 0.0586,0.351465 0.0499,0.728062 0.11964,1.076703 0.34752,1.737625 0.0639,-1.28362 0.59816,2.990843 0.0589,0.47118 -0.0589,0.96444 0,1.43561 0.0204,0.16315 0.0992,0.31539 0.11964,0.47854 0.13485,1.07876 0,2.25918 0,3.34975 0,0.87594 0.088,1.80148 -0.11964,2.63194 -0.0469,0.18766 0.0469,0.41051 0,0.59817 -0.14023,0.56093 -0.36189,1.09166 -0.47853,1.67488 -0.0373,0.18627 -0.0364,1.47199 -0.11963,1.55524 -0.24789,0.24788 -0.95707,-0.62381 -0.95707,-0.83744 0,-0.29499 -0.86549,-0.55238 -1.19634,-0.7178 -0.1825,-0.0912 -0.30012,-0.26969 -0.47854,-0.35891 -0.0713,-0.0357 -0.18287,0.0564 -0.23927,0 -0.0282,-0.0282 0.0282,-0.0914 0,-0.11963 -0.0282,-0.0282 -0.084,0.0178 -0.11963,0 -0.37335,-0.18667 -0.70703,-0.53297 -1.07671,-0.7178 -0.0357,-0.0178 -0.0797,0 -0.11963,0 -0.0798,-0.0399 -0.16507,-0.0702 -0.23927,-0.11964 -0.28501,-0.19 -0.51781,-0.43835 -0.83744,-0.59816 -0.0357,-0.0178 -0.0797,0 -0.11963,0 -0.0798,-0.0399 -0.16507,-0.0702 -0.23927,-0.11964 -0.21597,-0.14398 -0.36789,-0.3634 -0.59816,-0.47853 -0.0725,-0.0363 -0.30878,-0.0695 -0.35891,-0.11964 -0.0282,-0.0282 0.0282,-0.0914 0,-0.11963 -0.0553,-0.0553 -0.28667,0.0361 -0.3589,0 -0.17273,-0.0864 -0.30581,-0.15291 -0.47853,-0.23927 -0.22142,-0.11071 -0.60048,0.079 -0.83744,0 -0.0535,-0.0178 -0.0692,-0.0944 -0.11964,-0.11963 -0.15248,-0.0763 -0.43209,0.0415 -0.59816,0 -0.55341,-0.13836 -1.06706,-0.16329 -1.67488,-0.23927 z"
     id="path3"
     inkscape:label="R_mimi" /><path
     style="fill:none;fill-opacity:0;stroke:#000000;stroke-width:1.365"
     d="m 76.168861,45.860324 c -0.119634,-0.19939 -0.159512,-0.7178 -0.358902,-0.59817 -0.19939,0.11963 0.504159,0.77974 0.358902,0.59817 -0.304085,-0.38011 -0.551132,-0.80267 -0.837438,-1.19634 -0.251184,-0.34537 -0.629843,-0.59202 -0.957071,-0.83743 -0.225584,-0.16919 -0.377979,-0.42202 -0.59817,-0.59817 -0.162539,-0.13003 -0.417145,-0.38803 -0.598168,-0.47854 -0.03567,-0.0178 -0.09144,0.0282 -0.119634,0 -0.290568,-0.29057 0.03557,-0.17567 -0.239268,-0.3589 -0.159771,-0.10651 -0.46365,-0.22438 -0.59817,-0.3589 -0.06305,-0.0631 -0.05658,-0.17622 -0.119634,-0.23927 -0.06305,-0.063 -0.167931,-0.0661 -0.239268,-0.11963 -0.26793,-0.20095 -0.456165,-0.5085 -0.717804,-0.71781 -0.768501,-0.6148 -1.485701,-1.32363 -2.273043,-1.91414 -0.344199,-0.25815 -0.720191,-0.46315 -1.076706,-0.7178 -0.279146,-0.19939 -0.569563,-0.38388 -0.837435,-0.59817 -0.217157,-0.17373 -0.37573,-0.43134 -0.59817,-0.59817 -0.07134,-0.0535 -0.176216,-0.0566 -0.239268,-0.11964 -0.06305,-0.0631 -0.05658,-0.17621 -0.119634,-0.23927 -0.06305,-0.063 -0.167931,-0.0661 -0.239268,-0.11963 -0.626962,-0.47022 -1.133126,-1.16133 -1.55524,-1.79451 -0.164449,-0.24667 -0.406516,-0.31068 -0.59817,-0.59817 -0.153773,-0.23066 -0.397454,-0.31796 -0.59817,-0.47853 -0.176151,-0.14092 -0.290838,-0.35341 -0.478536,-0.47854 -0.314867,-0.20991 -0.640352,-0.38702 -0.957072,-0.59817 -0.169711,-0.11314 -0.147725,-0.26736 -0.239265,-0.3589 -0.129805,-0.1298 -0.551056,-0.18368 -0.717804,-0.23927 -0.263372,-0.0878 -0.674026,-0.69591 -0.957072,-0.83743 -0.439341,-0.21967 -1.007692,-0.31289 -1.435605,-0.59817 -0.09385,-0.0626 -0.138385,-0.18883 -0.239268,-0.23927 -0.03567,-0.0178 -0.09144,0.0282 -0.119634,0 -0.0282,-0.0282 0.0282,-0.0914 0,-0.11964 -0.0282,-0.0282 -0.09144,0.0282 -0.119634,0 -0.0282,-0.0282 0.0282,-0.0914 0,-0.11963 -0.04651,-0.0465 -0.302604,-0.0774 -0.358902,-0.11963 -0.595236,-0.44643 -1.142926,-0.99018 -1.79451,-1.31598 -0.251183,-0.12559 -0.679024,0.0695 -0.95707,0 -0.471966,-0.11799 -0.953299,-0.30531 -1.435608,-0.3589 -0.237805,-0.0264 -0.478536,0 -0.717801,0 -0.07976,0 -0.175464,0.0479 -0.239268,0 -0.115028,-0.0863 -0.137599,-0.25723 -0.239268,-0.3589 -0.250595,-0.25059 -0.894495,-0.22954 -1.19634,-0.3589 -0.132157,-0.0566 -0.230299,-0.17497 -0.358902,-0.23927 -1.155412,-0.5777 0.223107,0.15413 -0.59817,-0.11963 -0.0535,-0.0178 -0.06919,-0.0944 -0.119634,-0.11963 -0.126688,-0.0633 -0.339476,-0.0733 -0.478533,-0.11964 -0.434364,-0.14479 -0.587463,-0.4714 -0.957072,-0.7178 -0.06636,-0.0442 -0.167931,0.0357 -0.239268,0 -0.248156,-0.12408 -0.471916,-0.23596 -0.717804,-0.3589 -0.09571,-0.0479 -0.263195,0.0478 -0.358902,0 -0.388896,-0.19445 -0.875118,-0.36833 -1.315972,-0.47854 -0.455109,-0.11378 -2.186635,-0.0432 -2.512311,0.11963 -0.03567,0.0178 0.0282,0.0914 0,0.11964 -0.100835,0.10083 -0.743328,0.29031 -0.837438,0.47853 -0.07518,0.15037 -0.165367,0.38177 -0.358902,0.47854 -0.07251,0.0363 -0.308769,0.0695 -0.358902,0.11963 -0.0564,0.0564 0.0564,0.18288 0,0.23927 -0.0282,0.0282 -0.09143,-0.0282 -0.119634,0 -0.04743,0.0474 -0.277119,0.63602 -0.358902,0.7178 -0.0065,0.006 -0.352417,0.23279 -0.358902,0.23927 -0.05013,0.0501 -0.08338,0.2864 -0.119634,0.3589 -0.133358,0.26672 -0.504902,0.43801 -0.598167,0.71781 -0.03783,0.11349 0.0535,0.25189 0,0.3589 -0.05934,0.11868 -0.197962,0.23498 -0.239268,0.3589 -0.02522,0.0757 0.02521,0.1636 0,0.23927 -0.110662,0.33198 -0.479928,0.60235 -0.59817,0.95707 -0.02522,0.0757 0.02521,0.1636 0,0.23927 -0.01783,0.0535 -0.09441,0.0692 -0.119634,0.11963 -0.129919,0.25984 -0.300877,0.78657 -0.358902,1.07671 -0.01564,0.0782 0.02521,0.1636 0,0.23926 -0.01783,0.0535 -0.105955,0.0649 -0.119634,0.11964 -0.0637,0.25481 0.02928,0.57394 0,0.83743 -0.07019,0.63175 -0.300953,2.01028 -0.119634,2.63195 0.722982,2.4788 0.633402,1.96112 1.674876,3.34975 0.841674,1.12223 2.163437,1.95736 3.46938,2.39268 0.182645,0.0609 0.421318,0.0607 0.59817,0.11963 0.214421,0.0715 0.542245,0.2851 0.837438,0.3589 0.15475,0.0387 0.323787,-0.0387 0.478536,0 0.359334,0.0898 0.717405,0.14945 1.076704,0.23927 0.187661,0.0469 0.410509,-0.0469 0.59817,0 1.801246,0.45031 3.601225,0.7178 5.503158,0.7178 1.156462,0 2.312924,0 3.469384,0 0.427484,0 1.020164,-0.10386 1.435608,0 0.281646,0.0704 0.570595,0.12491 0.837438,0.23927 0.103671,0.0444 0.142546,0.18124 0.239265,0.23927 0.21627,0.12976 0.49222,0.12648 0.717804,0.23927 0.548362,0.27418 1.141603,0.5708 1.674876,0.83744 0.164991,0.0825 0.32277,0.25505 0.478533,0.35889 0.25373,0.16916 0.587627,0.234 0.837438,0.35891 0.351155,0.17557 0.629947,0.4346 0.957072,0.59817 0.07134,0.0357 0.163605,-0.0252 0.239268,0 0.502836,0.16761 1.012465,0.11963 1.55524,0.11963 1.375452,0 2.89434,-0.15824 4.187187,0.3589 0.277058,0.11083 1.298749,1.04226 1.435605,1.31598 0.01783,0.0357 -0.0282,0.0914 0,0.11963 0.0282,0.0282 0.08397,-0.0178 0.119634,0 0.100886,0.0504 0.138385,0.18883 0.239268,0.23927 0.03567,0.0178 0.09144,-0.0282 0.119634,0 0.0282,0.0282 -0.0282,0.0914 0,0.11963 0.03988,0.0399 0.319024,0.0798 0.358902,0.11963 0.05982,0.0598 0.05982,0.17945 0.119634,0.23927 0.0282,0.0282 0.09144,-0.0282 0.119634,0 0.0282,0.0282 -0.0282,0.0914 0,0.11964 0.0282,0.0282 0.08397,-0.0178 0.119634,0 0.198279,0.0991 0.223316,0.34295 0.358902,0.47853 0.0282,0.0282 0.09143,-0.0282 0.119634,0 0.0564,0.0564 -0.0564,0.18287 0,0.23927 0.108506,0.10851 0.582205,-0.0678 0.717804,0 0.05044,0.0252 0.06919,0.0944 0.119634,0.11963 0.299778,0.14989 0.250976,-0.25097 0.3589,-0.3589 0.0282,-0.0282 0.08397,0.0178 0.119634,0 0.364706,-0.18235 0.732927,-0.86768 0.957071,-1.31597 0.03567,-0.0713 -0.05639,-0.18287 0,-0.23927 0.0282,-0.0282 0.08645,0.0221 0.119634,0 0.366684,0.29072 0.20419,-0.32382 0.239268,-0.3589 0.0282,-0.0282 0.09144,0.0282 0.119634,0 0.0282,-0.0282 -0.0282,-0.0914 0,-0.11963 0.03968,-0.0397 0.407898,-0.20395 0.478536,-0.23927 0.193533,-0.0968 0.283718,-0.32817 0.358902,-0.47854 0.03988,-0.0797 0.239268,-0.0305 0.239268,-0.11963 0,-0.28198 -0.07976,-0.55829 -0.119634,-0.83744 z"
     id="path4"
     inkscape:label="L_mimi" /><path
     style="fill:none;fill-opacity:0;stroke:#000000;stroke-width:1.365"
     d="m 142.13047,50.739334 c 0,-0.1561 0.15611,-0.46832 0,-0.46832 -0.1561,0 0,0.62442 0,0.46832 0,-0.12432 -0.11107,-1.41696 0,-1.63911 0.0755,-0.15105 0.33946,-0.3159 0.35124,-0.35123 0.11397,-0.34192 0.14898,-0.71663 0.35124,-1.05372 0.28739,-0.47899 0.63098,-0.94647 0.93663,-1.40494 0.11846,-0.1777 0.15018,-0.41745 0.23416,-0.5854 0.0494,-0.0987 0.19925,-0.12944 0.23416,-0.23416 0.0247,-0.074 -0.0247,-0.16011 0,-0.23415 0.0742,-0.2226 0.53292,-0.53293 0.70247,-0.70248 0.14756,-0.14756 0.35389,-0.50911 0.46832,-0.58539 0.20671,-0.13782 0.4391,-0.24888 0.58539,-0.46832 0.0484,-0.0726 0.0554,-0.17245 0.11708,-0.23416 0.0617,-0.0617 0.17245,-0.0554 0.23416,-0.11708 0.12341,-0.12341 0.11075,-0.3449 0.23416,-0.46831 0.0617,-0.0617 0.17245,-0.0554 0.23415,-0.11708 0.14267,-0.14267 0.20858,-0.44273 0.35124,-0.5854 0.0995,-0.0995 0.25174,-0.13466 0.35124,-0.23416 0.0617,-0.0617 0.0687,-0.16155 0.11708,-0.23416 0.12505,-0.18758 0.30443,-0.22012 0.46831,-0.35123 0.38557,-0.0229 0.29162,-0.4087 0.46832,-0.5854 0.24958,-0.24958 0.98169,-0.73251 1.28787,-0.93663 0.21926,-0.14617 0.36613,-0.088 0.58539,-0.23416 0.52491,-0.34994 0.99863,-0.79201 1.52203,-1.05371 0.0987,-0.0494 0.13543,-0.18479 0.23416,-0.23416 0.53977,-0.26988 1.09635,-0.54817 1.63911,-0.81955 0.28722,-0.14361 0.53233,-0.44179 0.81955,-0.5854 0.54353,-0.27176 1.22546,-0.32003 1.75619,-0.58539 0.10123,-0.0506 2.79909,-0.0639 2.92697,0 0.21614,0.10807 0.44919,0.14973 0.70248,0.23416 0.14049,0.0468 0.32782,-0.0468 0.46831,0 0.12127,0.0404 0.23509,0.17608 0.35124,0.23416 0.1285,0.0642 0.87099,0.17325 1.05371,0.23415 0.22094,0.0737 0.75932,0.42399 0.93663,0.46832 0.11359,0.0284 0.23766,-0.0284 0.35124,0 0.0535,0.0134 0.0654,0.0977 0.11708,0.11708 0.26603,0.0998 0.55993,0.11877 0.81955,0.23416 0.10087,0.0448 0.13543,0.18479 0.23416,0.23416 0.0698,0.0349 0.16011,-0.0247 0.23416,0 0.13869,0.0462 0.21958,0.28541 0.35124,0.35123 0.34269,0.17135 0.72076,0.45276 1.05371,0.70248 0.0883,0.0662 0.13543,0.18479 0.23416,0.23415 0.11116,0.0556 0.76236,0.49962 0.81955,0.5854 0.0484,0.0726 0.0554,0.17245 0.11708,0.23416 0.0679,0.0679 0.40046,0.1663 0.46831,0.23416 0.0276,0.0276 -0.0175,0.0822 0,0.11707 0.24363,0.48726 -0.008,-0.12516 0.23416,0.11708 0.0276,0.0276 -0.0175,0.0822 0,0.11708 0.0702,0.1405 0.28099,0.21074 0.35124,0.35124 0.11254,0.22507 0.23739,0.47477 0.35124,0.70247 0.074,0.1481 0.25939,0.21348 0.35123,0.35124 0.1621,0.24315 0.45004,0.66592 0.5854,0.93663 0.0349,0.0698 -0.0552,0.17897 0,0.23416 0.0276,0.0276 0.0895,-0.0276 0.11708,0 0.012,0.012 0.10254,0.44651 0.11708,0.46832 0.0781,0.11708 0.13466,0.25174 0.23415,0.35124 0.0276,0.0276 0.0895,-0.0276 0.11709,0 0.14399,0.14399 0.68498,1.62161 0.81955,1.75618 0.0276,0.0276 0.0895,-0.0276 0.11708,0 0.0541,0.0541 -0.0353,0.28055 0,0.35124 0.13612,0.27224 0.21512,0.54731 0.35124,0.81955 0.14049,0.28099 -0.1405,0.77272 0,1.05371 0.0921,0.18417 0.11707,0.13274 0.11707,0.35124 -0.004,-0.74423 -0.19183,-1.20323 -0.46831,-1.75618 -0.26791,-0.53583 0.0485,0.49681 -0.23416,-0.35124 -0.0442,-0.13266 0.062,-0.34425 0,-0.46832 -0.0845,-0.16904 -0.14964,-0.29928 -0.23416,-0.46831 -0.0349,-0.0698 0.0349,-0.16435 0,-0.23416 -0.0494,-0.0987 -0.18479,-0.13543 -0.23415,-0.23416 -0.0349,-0.0698 0.0349,-0.16435 0,-0.23416 -0.046,-0.0921 -0.18034,-0.41449 -0.23416,-0.46831 -0.0276,-0.0276 -0.0895,0.0276 -0.11708,0 -0.0606,-0.0606 -0.0565,-0.40772 -0.11708,-0.46832 -0.0276,-0.0276 -0.0895,0.0276 -0.11708,0 -0.13865,-0.13865 -0.23061,-0.69892 -0.35124,-0.81955 -0.0276,-0.0276 -0.0895,0.0276 -0.11708,0 -0.0873,-0.0873 -0.0298,-0.26398 -0.11708,-0.35124 -0.006,-0.006 -0.34489,-0.22781 -0.35123,-0.23416 -0.0312,-0.0312 -0.0937,-0.32785 -0.11708,-0.35124 -0.0276,-0.0276 -0.0895,0.0276 -0.11708,0 -0.0619,-0.0619 -0.28939,-0.52354 -0.35124,-0.58539 -0.0585,-0.0585 -0.17562,-0.0585 -0.23416,-0.11708 -0.0276,-0.0276 0.0175,-0.0822 0,-0.11708 -0.14929,-0.29859 -0.62759,-0.56361 -0.81955,-0.81955 -0.0734,-0.0978 -0.0679,-0.26811 -0.23416,-0.35124 -0.0349,-0.0174 -0.0895,0.0276 -0.11708,0 -0.0719,-0.0719 -0.0773,-0.27283 -0.23415,-0.35124 -0.0349,-0.0174 -0.0895,0.0276 -0.11708,0 -0.0276,-0.0276 0.0276,-0.0895 0,-0.11708 -0.0388,-0.0388 -0.39919,-0.19959 -0.46832,-0.23415 -0.14049,-0.0703 -0.21074,-0.28099 -0.35124,-0.35124 -0.0349,-0.0174 -0.0895,0.0276 -0.11708,0 -0.0276,-0.0276 0.0276,-0.0895 0,-0.11708 -0.0552,-0.0552 -0.17896,0.0552 -0.23415,0 -0.24224,-0.24224 0.37017,0.009 -0.11708,-0.23416 -0.17003,-0.085 -0.70484,-0.23652 -0.81956,-0.35124 -0.24224,-0.24224 0.37018,0.009 -0.11708,-0.23415 -0.071,-0.0355 -0.30217,-0.068 -0.35123,-0.11708 -0.0276,-0.0276 0.0276,-0.0895 0,-0.11708 -0.0552,-0.0552 -0.16435,0.0349 -0.23416,0 -0.48726,-0.24363 0.12516,0.008 -0.11708,-0.23416 -0.0552,-0.0552 -0.16011,0.0247 -0.23416,0 -0.23883,-0.0796 -0.38454,-0.25081 -0.58539,-0.35124 -0.0707,-0.0353 -0.29712,0.0541 -0.35124,0 -0.0276,-0.0276 0.0276,-0.0895 0,-0.11708 -0.0585,-0.0585 -0.2927,0.0585 -0.35124,0 -0.0276,-0.0276 0.0276,-0.0895 0,-0.11708 -0.078,-0.078 -0.39026,0.0781 -0.46831,0 -0.0276,-0.0276 0.0276,-0.0895 0,-0.11707 -0.0541,-0.0541 -0.28055,0.0353 -0.35124,0 -0.30341,-0.15171 -0.631,-0.19842 -0.93663,-0.35124 -0.18733,-0.0937 -0.51515,0.0937 -0.70248,0 -0.62657,-0.31329 -2.36301,-0.11708 -3.16113,-0.11708 -0.0917,0 -0.52698,-0.0584 -0.5854,0 -0.0585,0.0585 -0.0585,0.17562 -0.11708,0.23416 -0.11068,0.11068 -0.60453,0.0191 -0.70247,0.11708 -0.0276,0.0276 0.0276,0.0895 0,0.11708 -0.0585,0.0585 -0.2927,-0.0585 -0.35124,0 -0.1046,0.1046 -0.12955,0.36371 -0.23416,0.46831 -0.10936,0.10936 -0.47603,0.1248 -0.58539,0.23416 -0.0585,0.0585 -0.0585,0.17562 -0.11708,0.23416 -0.0976,0.0976 -0.37075,0.0195 -0.46832,0.11708 -0.006,0.006 -0.22781,0.34489 -0.23415,0.35123 -0.0976,0.0976 -0.37075,0.0195 -0.46832,0.11708 -0.0276,0.0276 0.0276,0.0895 0,0.11708 -0.24224,0.24224 0.009,-0.37017 -0.23416,0.11708 -0.0175,0.0349 0.0276,0.0895 0,0.11708 -0.0552,0.0552 -0.16434,-0.0349 -0.23416,0 -0.3831,0.19155 -0.76537,0.0315 -0.93663,0.11708 -0.16904,0.0845 -0.29928,0.14964 -0.46831,0.23416 -0.0698,0.0349 -0.17897,-0.0552 -0.23416,0 -0.0585,0.0585 -0.0585,0.17562 -0.11708,0.23416 -0.0552,0.0552 -0.17897,-0.0552 -0.23416,0 -0.0276,0.0276 0.0276,0.0895 0,0.11707 -0.0585,0.0585 -0.17562,0.0585 -0.23416,0.11708 -0.0585,0.0585 -0.0585,0.17562 -0.11708,0.23416 -0.0276,0.0276 -0.0822,-0.0174 -0.11708,0 -0.14049,0.0703 -0.21074,0.28099 -0.35123,0.35124 -0.0349,0.0174 -0.0895,-0.0276 -0.11708,0 -0.24224,0.24224 0.37017,-0.009 -0.11708,0.23416 -0.0349,0.0174 -0.0895,-0.0276 -0.11708,0 -0.01,0.01 -0.45875,0.6929 -0.46832,0.70247 -0.0585,0.0585 -0.17562,0.0585 -0.23415,0.11708 -0.0617,0.0617 -0.0554,0.17245 -0.11708,0.23416 -0.0276,0.0276 -0.0895,-0.0276 -0.11708,0 -0.01,0.01 -0.45875,0.69291 -0.46832,0.70247 -0.0276,0.0276 -0.0895,-0.0276 -0.11708,0 -0.0276,0.0276 0.0276,0.0895 0,0.11708 -0.0276,0.0276 -0.0895,-0.0276 -0.11708,0 -0.0276,0.0276 0.0276,0.0895 0,0.11708 -0.0276,0.0276 -0.0895,-0.0276 -0.11708,0 -0.0276,0.0276 0.0276,0.0895 0,0.11708 -0.0276,0.0276 -0.0822,-0.0175 -0.11708,0 -0.25471,0.12736 -0.22107,0.34469 -0.46831,0.46832 -0.48726,0.24362 0.12516,-0.008 -0.11708,0.23415 -0.0719,0.0719 -0.27283,0.0773 -0.35124,0.23416 -0.0174,0.0349 0.0276,0.0895 0,0.11708 -0.0276,0.0276 -0.0822,-0.0174 -0.11708,0 -0.15681,0.0784 -0.16222,0.27931 -0.23415,0.35124 -0.0276,0.0276 -0.0822,-0.0175 -0.11708,0 -0.18584,0.0929 -0.27398,0.39105 -0.35124,0.46831 -0.0276,0.0276 -0.0895,-0.0276 -0.11708,0 -0.24224,0.24225 0.37018,-0.009 -0.11708,0.23416 -0.0349,0.0175 -0.0895,-0.0276 -0.11708,0 -0.0276,0.0276 0.0276,0.0895 0,0.11708 -0.0276,0.0276 -0.0895,-0.0276 -0.11708,0 -0.0276,0.0276 0.0175,0.0822 0,0.11708 -0.14049,0.28099 -0.56198,0.42149 -0.70247,0.70248 -0.0174,0.0349 0.0276,0.0895 0,0.11707 -0.0585,0.0585 -0.17562,0.0585 -0.23416,0.11708 -0.039,0.039 -0.078,0.31221 -0.11708,0.35124 -0.0276,0.0276 -0.0895,-0.0276 -0.11708,0 -0.0276,0.0276 0.0175,0.0822 0,0.11708 -0.0494,0.0987 -0.18479,0.13543 -0.23416,0.23416 -0.0349,0.0698 0.0552,0.17896 0,0.23416 -0.0276,0.0276 -0.0895,-0.0276 -0.11707,0 -0.0552,0.0552 0.0349,0.16434 0,0.23415 -0.0682,0.13639 -0.16597,0.21486 -0.23416,0.35124 -0.0468,0.0937 0.0468,0.25757 0,0.35124 -0.28639,0.57277 -0.40887,1.28605 -0.70248,1.87326 -0.0353,0.0707 0.0541,0.29712 0,0.35124 -0.0276,0.0276 -0.0895,-0.0276 -0.11708,0 -0.0552,0.0552 0.01,0.15671 0,0.23416 -0.0342,0.27382 -0.078,0.54637 -0.11708,0.81955 z"
     id="path5"
     inkscape:label="R_mayuge" /><path
     style="fill:none;fill-opacity:0;stroke:#000000;stroke-width:1.365"
     d="m 74.107543,69.940294 c -0.179731,-1.85577 0.111702,2.40488 -0.234156,-1.05371 -0.0055,-0.0549 0.09963,-0.0647 0.117078,-0.11708 0.05444,-0.16331 -0.03381,-0.41635 0,-0.58539 0.09199,-0.45994 0.357642,-0.84518 0.468315,-1.28787 0.04767,-0.19069 0.05447,-0.39755 0.117081,-0.5854 0.08057,-0.24172 0.252587,-0.27101 0.351237,-0.46831 0.140279,-0.28056 0.313356,-0.62672 0.468315,-0.93664 0.347837,-0.69567 0.599548,-1.43325 0.936633,-2.10742 0.05841,-0.11682 0.459491,-0.676 0.468315,-0.70247 0.168971,-0.50691 -0.223819,0.043 0.117081,-0.46832 0.264176,-0.39626 0.554884,-0.77379 0.819552,-1.17079 0.06123,-0.0918 0.184793,-0.13543 0.234159,-0.23416 0.231452,-0.4629 0.38009,-0.74094 0.702474,-1.17079 0.241427,-0.3219 0.75687,-0.5771 0.936633,-0.93663 0.01513,-0.0303 0.279196,-0.42029 0.351237,-0.46832 0.07261,-0.0484 0.172453,-0.0554 0.234159,-0.11708 0.02759,-0.0276 -0.0276,-0.0895 0,-0.11707 0.117078,-0.11708 0.468315,0 0.585393,-0.11708 0.06677,-0.0668 0.05985,-0.38248 0.117081,-0.46832 0.240511,-0.36077 0.558784,-0.66256 0.819552,-1.05371 0.124508,-0.18676 0.304469,-0.26932 0.468315,-0.35124 0.215546,-0.10777 0.01863,-0.24346 0.234159,-0.35124 0.207256,-0.10362 0.04001,0.17415 0.234159,-0.11707 0.308015,-0.46203 0.68222,-0.72501 1.053711,-1.1708 0.02498,-0.03 0,-0.078 0,-0.11707 0.03903,-0.039 0.07805,-0.0781 0.117078,-0.11708 0.193082,-0.19309 0.433467,-0.24043 0.585396,-0.46832 0.108098,-0.16215 0.262464,-0.40785 0.351237,-0.5854 0.100576,-0.20115 0.30743,-0.1099 0.468321,-0.35123 0.10653,-0.15981 0.24534,-0.35683 0.46831,-0.46832 0.098,-0.049 0.69934,-0.31117 0.81955,-0.35123 0.074,-0.0247 0.16012,0.0247 0.23416,0 0.0524,-0.0175 0.0635,-0.1037 0.11708,-0.11709 0.11359,-0.0284 0.23766,0.0284 0.35124,0 0.0535,-0.0134 0.0647,-0.0996 0.11708,-0.11707 0.21477,-0.0716 0.43925,-0.0293 0.70247,-0.11708 0.37267,-0.12423 0.79996,0.007 1.17079,-0.11708 0.0524,-0.0175 0.0635,-0.10369 0.11708,-0.11708 0.29193,-0.073 1.8389,-0.0413 1.99035,-0.11708 0.596,-0.298 2.17746,-0.11708 2.92697,-0.11708 0.36398,0 1.70052,-0.14491 1.99034,0 0.23898,0.11949 1.52067,1.05098 1.63911,1.28787 0.0736,0.14716 0.16184,0.37362 0.35124,0.46832 0.61377,0.30688 1.09182,1.24838 1.63911,1.52202 0.10857,0.0543 0.548912,0.31476 0.585392,0.35124 0.24224,0.24224 -0.37017,-0.009 0.11708,0.23416 0.0349,0.0175 0.0895,-0.0276 0.11708,0 0.0773,0.0773 0.1654,0.3754 0.35124,0.46832 0.0349,0.0175 0.0895,-0.0276 0.11708,0 0.0276,0.0276 -0.0276,0.0895 0,0.11708 0.0276,0.0276 0.0895,-0.0276 0.11707,0 0.24225,0.24224 -0.37017,-0.009 0.11708,0.23415 0.0349,0.0175 0.0895,-0.0276 0.11708,0 0.0654,0.0654 0.17107,0.34821 0.35124,0.46832 0.35376,0.23584 0.47654,0.56229 0.81955,0.81955 0.0698,0.0524 0.17245,0.0554 0.23416,0.11708 0.0496,0.0496 0.30728,0.54144 0.35124,0.5854 0.0276,0.0276 0.0895,-0.0276 0.11708,0 0.039,0.039 0.078,0.31221 0.11708,0.35123 0.0276,0.0276 0.0895,-0.0276 0.11707,0 0.0585,0.0585 -0.0585,0.2927 0,0.35124 0.0276,0.0276 0.0895,-0.0276 0.11709,0 0.0675,0.0675 0.007,1.9974 0.23415,2.2245 -0.45707,-0.79759 -0.38302,-1.46852 -0.70247,-2.10742 -0.0349,-0.0698 0.0552,-0.17896 0,-0.23416 -0.0276,-0.0276 -0.0895,0.0276 -0.11708,0 -0.0552,-0.0552 0.0349,-0.16434 0,-0.23415 -0.0247,-0.0494 -0.0996,-0.0647 -0.11708,-0.11708 -0.0386,-0.11588 -0.0256,-0.37682 -0.11708,-0.46832 -0.0276,-0.0276 -0.0895,0.0276 -0.11708,0 -0.10936,-0.10936 -0.12479,-0.47603 -0.23415,-0.58539 -0.0276,-0.0276 -0.0895,0.0276 -0.11708,0 -0.10936,-0.10937 -0.1248,-0.47604 -0.23416,-0.5854 -0.0276,-0.0276 -0.0822,0.0174 -0.11708,0 -0.25887,-0.12943 -0.0363,-0.0727 -0.11708,-0.23416 -0.0929,-0.18583 -0.39105,-0.27397 -0.46832,-0.35123 -0.0276,-0.0276 0.0175,-0.0822 0,-0.11708 -0.0937,-0.18733 -0.37465,-0.28099 -0.46831,-0.46832 -0.0174,-0.0349 0.0276,-0.0895 0,-0.11708 -0.0276,-0.0276 -0.0822,0.0174 -0.11708,0 -0.28099,-0.14049 -0.42149,-0.56198 -0.70247,-0.70247 -0.0349,-0.0175 -0.0895,0.0276 -0.11708,0 -0.126602,-0.1266 -0.437042,-0.6283 -0.585402,-0.70248 -0.0349,-0.0174 -0.0895,0.0276 -0.11708,0 -0.0673,-0.0674 -0.10707,-0.25592 -0.23416,-0.35123 -0.1561,-0.11708 -0.38105,-0.17671 -0.46831,-0.35124 -0.0175,-0.0349 0.0276,-0.0895 0,-0.11708 -0.0388,-0.0388 -0.39919,-0.19959 -0.46832,-0.23416 -0.18733,-0.0937 -0.28099,-0.37465 -0.46831,-0.46832 -0.23263,-0.11631 -0.12801,-0.128 -0.23416,-0.23415 -0.0276,-0.0276 -0.0895,0.0276 -0.11708,0 -0.0276,-0.0276 0.0276,-0.0895 0,-0.11708 -0.0276,-0.0276 -0.0822,0.0174 -0.11708,0 -0.13831,-0.0692 -0.22208,-0.26513 -0.35124,-0.35124 -0.0471,-0.0314 -0.57347,-0.33931 -0.58539,-0.35124 -0.0276,-0.0276 0.0276,-0.0895 0,-0.11708 -0.08,-0.08 -1.07768,-0.0705 -1.17079,-0.11707 -0.0494,-0.0247 -0.0677,-0.0924 -0.11708,-0.11708 -0.11844,-0.0592 -3.30291,-0.0462 -3.3953,0 -0.26165,0.13082 -0.95206,0.26728 -1.28787,0.35123 -0.37067,0.0927 -1.05421,1.7e-4 -1.40494,0.11708 -0.0524,0.0175 -0.0647,0.0996 -0.11708,0.11708 -0.11244,0.0375 -0.35595,-0.0562 -0.46832,0 -0.70816,0.35408 -1.50994,0.57936 -2.2245,0.93663 -0.18061,0.0903 -0.67535,0.09 -0.81955,0.23416 -0.0585,0.0585 -0.0585,0.17562 -0.11708,0.23416 -0.0619,0.0618 -0.523548,0.28939 -0.585398,0.35124 -0.0276,0.0276 0.01745,0.0822 0,0.11708 -0.02622,0.0524 -0.663794,0.42963 -0.702475,0.46831 -0.0276,0.0276 0.0276,0.0895 0,0.11708 -0.06786,0.0679 -0.400457,0.1663 -0.468316,0.23416 -0.08722,0.0872 -0.168004,0.40216 -0.234158,0.46832 -0.0276,0.0276 -0.08948,-0.0276 -0.117079,0 -0.0276,0.0276 0.0276,0.0895 0,0.11707 -0.06171,0.0617 -0.172452,0.0554 -0.234158,0.11708 -0.05377,0.0538 -0.247749,0.48191 -0.351237,0.5854 -0.18595,0.18595 -1.274999,1.14505 -1.28787,1.17079 -0.269187,0.53837 -0.697187,0.98724 -1.053711,1.52203 -0.346835,0.52025 -1.126656,0.84836 -1.404949,1.40495 -0.08075,0.16149 0.141789,0.10472 -0.117079,0.23415 -0.03491,0.0175 -0.08948,-0.0276 -0.117079,0 -0.0496,0.0496 -0.307281,0.54144 -0.351237,0.5854 -0.0276,0.0276 -0.08948,-0.0276 -0.117079,0 -0.03903,0.039 -0.07805,0.31221 -0.117079,0.35124 -0.0276,0.0276 -0.08948,-0.0276 -0.117079,0 -0.0276,0.0276 0.01745,0.0822 0,0.11708 -0.142692,0.28538 -0.325625,0.53417 -0.468316,0.81955 -0.09031,0.18061 -0.08996,0.67535 -0.234159,0.81955 -0.02759,0.0276 -0.08948,-0.0276 -0.117079,0 -0.05519,0.0552 0.03491,0.16435 0,0.23416 -0.127108,0.25422 -0.453206,0.4381 -0.585395,0.70247 -0.221356,0.44272 -0.438184,0.77436 -0.702474,1.17079 -0.04047,0.0607 -0.06988,0.30404 -0.117079,0.35124 -0.0276,0.0276 -0.08948,-0.0276 -0.117079,0 -0.0606,0.0606 -0.05648,0.40772 -0.117079,0.46832 -0.0276,0.0276 -0.08948,-0.0276 -0.117079,0 -0.0056,0.006 -0.309999,0.62 -0.351237,0.70247 -0.04683,0.0937 0.04683,0.25758 0,0.35124 -0.02468,0.0494 -0.09963,0.0647 -0.11708,0.11708 -0.05187,0.1556 0.07433,0.43674 0,0.58539 -0.215855,0.43172 -0.379292,0.87567 -0.585395,1.28787 -0.07805,0.15611 0.07805,0.42929 0,0.5854 -0.278718,0.55744 -0.219149,0.92461 -0.117081,1.6391 z"
     id="path6"
     inkscape:label="L_mayuge" /><path
     style="fill:none;fill-opacity:0;stroke:#000000;stroke-width:1.365"
     d="m 91.753578,74.387744 c 0.0691,0 0.20725,0.0691 0.20725,0 0,-0.0691 -0.27427,-0.0168 -0.20725,0 0.13508,0.0338 0.27857,0.0216 0.41449,0.0518 0.0238,0.005 0.0325,0.0368 0.0518,0.0518 0.13632,0.10603 0.27079,0.21507 0.41448,0.31087 0.0144,0.01 0.0345,0 0.0518,0 0.0345,0.0173 0.0715,0.0304 0.10363,0.0518 0.1312,0.0875 0.47336,0.4875 0.5181,0.62172 0.0109,0.0328 -0.008,0.0701 0,0.10362 0.0421,0.16847 0.20808,0.31338 0.25905,0.4663 0.0576,0.17279 0.0741,0.35538 0.15544,0.5181 0.0536,0.10722 0.0197,1.14499 0,1.24346 -0.0342,0.17102 -0.0555,0.21831 -0.10363,0.36267 -0.0482,0.14468 -0.0308,0.32073 -0.10362,0.4663 -0.0631,0.12629 -0.14409,0.23638 -0.20724,0.36267 -0.0157,0.0314 -0.0301,0.13372 -0.0518,0.15543 -0.0122,0.0122 -0.0396,-0.0122 -0.0518,0 -0.0674,0.0674 -0.17538,0.33082 -0.20724,0.36268 -0.0273,0.0273 -0.0763,0.0245 -0.10363,0.0518 -0.0122,0.0122 0.008,0.0364 0,0.0518 -0.0359,0.0718 -0.49786,0.53389 -0.56991,0.56991 -0.0618,0.0309 -0.21237,0.0569 -0.25905,0.10363 -0.1072,0.10719 0.16381,-0.004 -0.0518,0.10362 -0.13007,0.065 -0.27547,0.13773 -0.41449,0.20724 -0.0737,0.0369 -0.0299,0.0668 -0.10362,0.10362 -0.18574,0.0929 -0.3837,0.16595 -0.56992,0.25905 -0.0988,0.0494 -0.35369,0 -0.46629,0 -0.47075,0 -0.5433,0.0392 -0.93259,-0.15543 -0.0154,-0.008 -0.0345,0 -0.0518,0 -0.0345,-0.0173 -0.0715,-0.0304 -0.10362,-0.0518 -0.0572,-0.0381 -0.0942,-0.12483 -0.15543,-0.15543 -0.0155,-0.008 -0.0345,0 -0.0518,0 -0.0345,-0.0173 -0.0715,-0.0304 -0.10363,-0.0518 -0.0257,-0.0172 -0.40615,-0.54492 -0.41448,-0.56992 -0.025,-0.075 -0.0177,-0.1391 -0.0518,-0.20724 -0.0219,-0.0437 -0.0882,-0.0573 -0.10362,-0.10362 -0.0109,-0.0328 0.0128,-0.0716 0,-0.10362 -0.0321,-0.0802 -0.12813,-0.12532 -0.15543,-0.20725 -0.0748,-0.22431 0.099,0.019 -0.0518,-0.20724 -0.0271,-0.0406 -0.0818,-0.0599 -0.10362,-0.10362 -0.11277,-0.22554 -0.29777,-1.02368 -0.20725,-1.29526 0.0322,-0.0967 0.0645,-0.12907 0.10362,-0.20724 0.0301,-0.0602 0.0856,-0.39422 0.10363,-0.4663 0.0129,-0.0514 0.22209,-0.4442 0.25905,-0.51811 0.0219,-0.0437 0.0818,-0.0599 0.10362,-0.10362 0.0232,-0.0463 -0.0164,-0.10627 0,-0.15543 0.0155,-0.0463 0.0818,-0.0599 0.10362,-0.10362 0.0266,-0.0531 0.0252,-0.15411 0.0518,-0.20724 0.0219,-0.0437 0.0882,-0.0573 0.10362,-0.10362 0.0109,-0.0328 -0.0109,-0.0709 0,-0.10362 0.0155,-0.0463 0.0818,-0.0599 0.10362,-0.10362 0.008,-0.0155 -0.01,-0.0375 0,-0.0518 0.16189,-0.24282 0.83362,-0.70176 1.08802,-0.82896 0.0996,-0.0498 0.1595,-0.15747 0.25906,-0.20724 0.06,-0.03 0.1491,-0.0228 0.20724,-0.0518 0.57534,-0.28768 0.58735,-0.4209 1.29526,-0.15544 z"
     id="path7"
     inkscape:label="L_eye" /><path
     style="fill:none;fill-opacity:0;stroke:#000000;stroke-width:1.365"
     d="m 162.99568,58.734454 c 0.0991,0.0248 0.27265,0.1735 0.29744,0.0744 0.0248,-0.0992 -0.35413,-0.15939 -0.29744,-0.0744 0.14615,0.21923 0.40856,0.3342 0.59488,0.52052 0.0175,0.0175 -0.0175,0.0568 0,0.0744 0.0175,0.0175 0.0568,-0.0175 0.0744,0 0.0472,0.0472 -0.0309,0.23552 0,0.29744 0.0314,0.0627 0.11737,0.086 0.14872,0.14871 0.0807,0.1615 0.0954,0.36042 0.14872,0.52052 0.0111,0.0333 0.0633,0.0411 0.0744,0.0744 0.0314,0.0941 -0.0314,0.20338 0,0.29744 0.0336,0.10095 0.11785,0.17396 0.14872,0.29744 0.0157,0.0628 -0.0325,0.23243 0,0.29744 0.15204,0.30408 0.0744,0.7588 0.0744,1.11539 0,0.11877 -0.0537,0.85104 -0.0744,0.89232 -0.0111,0.0222 -0.0568,-0.0175 -0.0744,0 -0.035,0.0351 0.0157,0.10169 0,0.14871 -0.0726,0.21772 -0.20038,0.40076 -0.29744,0.59488 -0.0222,0.0443 0.0351,0.11367 0,0.14872 -0.0415,0.0415 -0.22115,0.10865 -0.29743,0.22308 -0.34173,0.51259 -0.51114,0.88763 -0.96668,1.11539 -0.14944,0.0747 -1.38649,0.1619 -1.56155,0.0744 -0.0627,-0.0314 -0.0822,-0.12654 -0.14872,-0.14871 -0.047,-0.0157 -0.10169,0.0157 -0.14872,0 -0.19747,-0.0658 -0.38757,-0.22834 -0.59488,-0.29744 -0.0864,-0.0288 -0.21869,-0.035 -0.29744,-0.0744 -0.0314,-0.0157 -0.0411,-0.0633 -0.0743,-0.0744 -0.047,-0.0157 -0.10169,0.0157 -0.14872,0 -0.1182,-0.0394 -0.1851,-0.24127 -0.29744,-0.29744 -0.0222,-0.0111 -0.0568,0.0175 -0.0744,0 -0.24857,-0.24857 -0.59753,-0.89763 -0.7436,-1.18975 -0.0472,-0.0944 0.0329,-0.27298 0,-0.3718 -0.0111,-0.0333 -0.0587,-0.043 -0.0744,-0.0744 -0.008,-0.0162 -0.0305,-1.4262 0,-1.48719 0.11801,-0.23603 0.1397,-0.49345 0.22308,-0.7436 0.0222,-0.0665 0.10983,-0.0904 0.14872,-0.14872 0.0248,-0.0496 0.0496,-0.0992 0.0744,-0.14872 0,-0.0248 -0.0111,-0.0522 0,-0.0744 0.068,-0.13609 0.2227,-0.22231 0.29744,-0.3718 0.0273,-0.0546 0.12978,-0.16625 0.14872,-0.22308 0.0157,-0.047 -0.0157,-0.10169 0,-0.14872 0.0319,-0.0958 0.19116,-0.20168 0.22308,-0.29743 0.0157,-0.047 -0.0157,-0.10169 0,-0.14872 0.0222,-0.0665 0.11736,-0.086 0.14872,-0.14872 0.0111,-0.0222 -0.0175,-0.0568 0,-0.0744 0.0175,-0.0175 0.0522,0.0111 0.0744,0 0.13954,-0.0698 0.10693,-0.23937 0.22307,-0.29744 0.23083,-0.11541 0.4253,-0.32419 0.66924,-0.44616 0.0587,-0.0294 0.16037,0.0209 0.22308,0 0.38647,-0.12882 1.29397,-0.13935 1.63591,0.0744 0.18081,0.11301 0.34701,0.24787 0.52052,0.3718 z"
     id="path8"
     inkscape:label="R_eye" /><path
     style="display:inline;fill:none;fill-opacity:0;stroke:#000000;stroke-width:1.365"
     d="m 30.506674,62.736534 c -0.247555,0.008 -0.543727,-0.009 -0.776449,-0.0863 -0.03858,-0.0129 -0.05751,-0.0575 -0.08627,-0.0863 -0.05751,-0.0288 -0.110162,-0.0707 -0.172545,-0.0863 -0.233294,-0.0583 -0.482296,-0.12023 -0.690179,-0.25882 -0.15575,-0.10383 -0.265303,-0.26206 -0.431361,-0.34509 -0.645065,-0.32253 -1.20696,-0.7178 -1.639173,-1.29408 -0.226065,-0.30142 -0.782561,-0.77951 -1.12154,-0.949 -0.360299,-0.18015 -0.874038,-0.99708 -1.121537,-1.29408 -0.104145,-0.12497 -0.247483,-0.21495 -0.345091,-0.34509 -0.07716,-0.10289 -0.08161,-0.25415 -0.172542,-0.34509 -0.126352,-0.12635 -0.223552,-0.16278 -0.345091,-0.34509 -0.18451,-0.27676 -0.244028,-0.58172 -0.431361,-0.86272 -0.0681,-0.10216 -0.221498,-0.23313 -0.258815,-0.34509 -0.01818,-0.0546 0.01818,-0.11798 0,-0.17254 -0.01286,-0.0386 -0.07341,-0.0477 -0.08627,-0.0863 -0.08535,-0.25605 0,-0.67647 0,-0.94899 0,-0.408 0.08015,-0.32671 0.172543,-0.60391 0.01818,-0.0546 -0.02572,-0.1211 0,-0.17254 0.01286,-0.0257 0.06055,0.0129 0.08627,0 0.359044,-0.17952 -0.09223,0.006 0.08627,-0.17255 0.02035,-0.0203 0.06594,0.0204 0.08627,0 0.178501,-0.1785 -0.272772,0.007 0.08627,-0.17254 0.12201,-0.061 0.28481,-0.12369 0.43136,-0.17255 0.103527,-0.0345 0.241562,0.0345 0.345088,0 0.17063,-0.0569 0.288013,-0.10087 0.431361,-0.17254 0.07717,-0.0386 0.176972,0.0273 0.258818,0 0.03858,-0.0129 0.04682,-0.0764 0.08627,-0.0863 0.310306,-0.0776 0.807815,0 1.12154,0 0.547597,0 1.296,-0.10314 1.811715,0 0.589119,0.11782 1.227421,0.11274 1.811719,0.25881 0.177594,0.0444 0.340037,0.12815 0.517633,0.17255 0.111596,0.0279 0.232294,-0.0226 0.345089,0 0.216828,0.0434 0.401097,0.10494 0.603906,0.17254 0.07764,0.0259 0.18117,-0.0259 0.258818,0 0.03858,0.0129 0.04639,0.0783 0.08627,0.0863 0.169196,0.0338 0.353943,-0.0546 0.517633,0 0.03858,0.0129 0.04769,0.0734 0.08627,0.0863 0.109127,0.0364 0.235963,-0.0364 0.345091,0 0.03858,0.0129 0.04769,0.0734 0.08627,0.0863 0.235937,0.0786 0.951222,0.0221 1.207812,0.0863 0.232,0.058 0.458179,0.11455 0.690179,0.17255 0.213789,0.0534 0.48229,-0.0693 0.690179,0 0.380822,0.12694 -0.313442,0.0863 0.258815,0.0863 0.345088,0 0.690179,0 1.035267,0 0.01913,0 0.512898,-0.0863 0.258818,-0.0863 -0.02876,0 0.01286,0.0606 0,0.0863 -0.04328,0.0865 -0.102121,0.18839 -0.172545,0.25882 -0.125714,0.12571 -0.148098,0.40691 -0.172546,0.43136 -0.02035,0.0203 -0.06594,-0.0204 -0.08627,0 -0.02032,0.0203 0.01286,0.0605 0,0.0863 -0.03637,0.0728 -0.136168,0.0998 -0.172543,0.17254 -0.061,0.12201 -0.123695,0.28481 -0.172545,0.43137 -0.01818,0.0546 0.04067,0.13187 0,0.17254 -0.02032,0.0204 -0.06594,-0.0204 -0.08627,0 -0.04067,0.0407 0.01818,0.11798 0,0.17254 -0.07,0.21001 -0.169204,0.33841 -0.258815,0.51764 -0.04424,0.0885 -0.04204,0.25662 -0.08627,0.34509 -0.0814,0.1628 -0.174681,0.34936 -0.258818,0.51763 -0.0485,0.097 -0.224751,0.15662 -0.258816,0.25882 -0.01818,0.0546 0.01818,0.11798 0,0.17254 -0.02572,0.0772 -0.13617,0.0998 -0.172545,0.17255 -0.09481,0.18962 -0.252743,0.41921 -0.345088,0.6039 -0.05456,0.10913 -0.19114,0.1573 -0.258818,0.25882 -0.05491,0.0824 -0.105998,0.24527 -0.172543,0.34509 -0.06768,0.10151 -0.185613,0.16121 -0.258818,0.25881 -0.112585,0.15012 -0.213503,0.38605 -0.345088,0.51764 -0.04547,0.0455 -0.119041,0.0506 -0.172545,0.0863 -0.385406,0.25694 -0.646893,0.69008 -1.035267,0.949 -0.244211,0.1628 -0.344612,0.4739 -0.517634,0.69017 -0.101624,0.12703 -0.254852,0.20974 -0.345088,0.34509 -0.03567,0.0535 -0.03006,0.14132 -0.08627,0.17255 -0.214783,0.11932 -0.460118,0.17254 -0.690178,0.25881 z"
     id="path10"
     inkscape:label="tail" /><path
     style="fill:none;fill-opacity:0;stroke:#000000;stroke-width:1.365"
     d="m 69.750043,55.070694 c -0.231682,0 -0.695049,-0.23168 -0.695049,0 0,0.23168 0.919818,-0.0562 0.695049,0 -0.625501,0.15638 -2.95198,0.52328 -3.127732,0.34753 -0.04096,-0.041 0.04095,-0.13281 0,-0.17377 -0.219734,-0.21973 -0.632031,-0.22913 -0.868815,-0.34752 -0.167759,-0.0839 -0.966745,-0.44546 -1.042577,-0.52129 -0.04096,-0.041 0.04095,-0.13281 0,-0.17376 -0.08191,-0.0819 -0.243914,0.0518 -0.347528,0 -0.467402,-0.23371 -0.931172,-0.46559 -1.390102,-0.69506 -0.113784,-0.0569 -0.64611,-0.4234 -0.695052,-0.52129 -0.0259,-0.0518 0.04095,-0.1328 0,-0.17376 -0.156919,-0.15692 -0.661781,-0.24401 -0.868815,-0.34752 -0.452694,-0.22635 -0.958707,-0.47936 -1.390105,-0.69506 -0.146529,-0.0733 -0.200996,-0.27426 -0.347525,-0.34752 -0.05181,-0.0259 -0.132808,0.0409 -0.173763,0 -0.04096,-0.041 0.04096,-0.13281 0,-0.17377 -0.144803,-0.1448 -0.550251,-0.029 -0.695052,-0.17376 -0.04096,-0.041 0.04095,-0.13281 0,-0.17376 -0.08688,-0.0869 -0.434409,0.0869 -0.52129,0 -0.04095,-0.041 0.04096,-0.13281 0,-0.17377 -0.20025,-0.20025 -0.784175,-0.21832 -1.042577,-0.34752 -0.13665,-0.0683 -0.615165,-0.26764 -0.695053,-0.34753 -0.04095,-0.0409 0.04096,-0.1328 0,-0.17376 -0.08191,-0.0819 -0.237628,0.0366 -0.347525,0 -0.354467,-0.11816 -0.570719,-0.37224 -0.868815,-0.52129 -0.207036,-0.10352 -0.711898,-0.19061 -0.868815,-0.34753 -0.04096,-0.041 0.04095,-0.1328 0,-0.17376 -0.08191,-0.0819 -0.243914,0.0518 -0.347527,0 -0.146529,-0.0733 -0.200996,-0.27426 -0.347525,-0.34752 -0.503034,-0.25152 -1.060834,-0.44354 -1.563868,-0.69506 -0.333909,-0.16695 -0.534905,-0.52809 -0.868814,-0.69505 -0.103611,-0.0518 -0.265613,0.0819 -0.347525,0 -0.04096,-0.0409 0.04095,-0.1328 0,-0.17376 -0.106119,-0.10612 -1.213393,-0.0854 -1.390105,-0.17376 -0.07327,-0.0366 -0.1005,-0.13713 -0.173763,-0.17377 -0.324358,-0.16217 -0.891984,0.16218 -1.216342,0 -0.07326,-0.0366 -0.100497,-0.13713 -0.173763,-0.17376 -0.231682,-0.11584 -0.63713,0.11584 -0.868815,0 -0.54389,-0.27194 -1.441786,-0.36045 -2.085154,-0.52129 -0.09158,-0.0229 -0.959094,-0.26404 -1.042578,-0.34753 -0.04096,-0.0409 0.04095,-0.1328 0,-0.17376 -0.08192,-0.0819 -0.243914,0.0518 -0.347527,0 -0.208516,-0.10425 -0.312772,-0.41703 -0.521288,-0.52129 -0.103613,-0.0518 -0.243914,0.0518 -0.347527,0 -0.146529,-0.0733 -0.200996,-0.27426 -0.347525,-0.34752 -0.103614,-0.0518 -0.265615,0.0819 -0.347528,0 -0.0094,-0.009 -0.338108,-0.51188 -0.347525,-0.52129 -0.08688,-0.0869 -0.434408,0.0869 -0.52129,0 -0.04095,-0.041 0.04096,-0.13281 0,-0.17377 -0.01087,-0.0109 -0.786336,-0.48004 -0.868815,-0.52128 -0.10361,-0.0518 -0.265612,0.0819 -0.347525,0 -0.05582,-0.0558 -0.109844,-0.56722 -0.173762,-0.69506 -0.101637,-0.20327 -1.26456,-0.74327 -1.390105,-0.86881 -0.08341,-0.0834 -0.239821,-0.58735 -0.347525,-0.69505 -0.05792,-0.0579 -0.46337,-0.11585 -0.52129,-0.17377 -0.115284,-0.11528 -0.213915,-0.49013 -0.52129,-0.69505 -0.217956,-0.1453 -0.562628,-0.25644 -0.69505,-0.52128 -0.118192,-0.23639 0.03083,-0.66422 -0.173765,-0.86882 -0.04095,-0.041 -0.121954,0.0259 -0.173762,0 -0.208516,-0.10426 -0.312772,-0.41703 -0.521288,-0.52129 -0.05181,-0.0259 -0.132807,0.041 -0.173765,0 -0.04096,-0.041 0.04096,-0.13281 0,-0.17376 -0.04096,-0.041 -0.132805,0.041 -0.173762,0 -0.118782,-0.11879 -0.452401,-0.97369 -0.521288,-1.04258 -0.04096,-0.041 -0.132807,0.041 -0.173765,0 -0.04095,-0.041 0.04096,-0.13281 0,-0.17376 -0.100711,-0.10072 -0.594338,-0.24682 -0.695049,-0.34753 -0.04096,-0.041 0.04095,-0.13281 0,-0.17376 -0.107707,-0.10771 -0.611643,-0.26412 -0.695053,-0.34753 -0.137319,-0.13732 -0.534493,-1.59027 -0.695052,-1.91139 -0.09267,-0.18535 0.09267,-0.50971 0,-0.69505 -0.101206,-0.20242 -0.24632,-0.31888 -0.347525,-0.52129 -0.08376,-0.16751 -0.282747,-2.90977 -0.173765,-3.12774 0.182586,-0.36517 0.08965,-0.52682 0.173765,-0.69505 0.126709,-0.25342 0.277971,-0.27797 0.347525,-0.34752 0.08191,-0.0819 -0.08191,-0.26562 0,-0.34753 0.04096,-0.041 0.132807,0.041 0.173762,0 0.08191,-0.0819 -0.05181,-0.24391 0,-0.34753 0.03663,-0.0733 0.137131,-0.1005 0.173763,-0.17376 0.07468,-0.14935 0.256704,-1.20846 0.347527,-1.3901 0.269558,-0.53912 0.599257,-1.02475 0.868815,-1.56387 0.05181,-0.10361 -0.05181,-0.24392 0,-0.34753 0.150611,-0.30122 0.802195,-2.1923 0.868815,-2.25892 0.04095,-0.0409 0.132805,0.041 0.173762,0 0.08191,-0.0819 -0.08191,-0.26561 0,-0.34752 0.04096,-0.041 0.132808,0.041 0.173763,0 0.05792,-0.0579 0.115842,-0.46337 0.173762,-0.52129 0.04096,-0.041 0.121957,0.0259 0.173765,0 0.72316,-0.36158 -0.185758,0.012 0.173763,-0.34753 0.04096,-0.0409 0.132805,0.041 0.173762,0 0.04096,-0.0409 -0.0259,-0.12195 0,-0.17376 0.08397,-0.16793 0.527119,-0.61109 0.695053,-0.69505 0.0518,-0.0259 0.132807,0.0409 0.173762,0 0.04096,-0.041 -0.04095,-0.13281 0,-0.17376 0.0094,-0.009 0.511874,-0.33811 0.52129,-0.34753 0.04096,-0.041 -0.04096,-0.13281 0,-0.17376 0.04096,-0.041 0.132805,0.0409 0.173763,0 0.04095,-0.041 -0.04096,-0.13281 0,-0.17377 0.04095,-0.0409 0.132807,0.041 0.173762,0 0.04096,-0.0409 -0.04095,-0.1328 0,-0.17376 0.103275,-0.10327 0.204364,-0.10218 0.347525,-0.17376 0.723162,-0.36158 -0.185759,0.012 0.173765,-0.34753 0.04096,-0.041 0.121957,0.0259 0.173763,0 0.146529,-0.0733 0.200996,-0.27426 0.347525,-0.34752 0.107352,-0.0537 0.630644,-0.10936 0.695052,-0.17377 0.04096,-0.0409 -0.04095,-0.132803 0,-0.173761 0.08688,-0.08688 0.434409,0.08688 0.52129,0 0.04095,-0.04095 -0.04096,-0.132805 0,-0.173762 0.25064,-0.250643 1.234107,0.16488 1.563867,0 0.359791,-0.179896 0.687031,-0.343517 1.042578,-0.52129 0.104912,-0.05246 0.440965,0.08033 0.521287,0 0.04096,-0.04095 -0.04096,-0.132805 0,-0.173763 0.11022,-0.11022 0.550381,0.07234 0.695053,0 0.423553,-0.211775 0.792789,-0.483274 1.216342,-0.695052 0.103611,-0.05181 0.243912,0.05181 0.347525,0 0.253421,-0.126709 0.277974,-0.277971 0.347525,-0.347525 0.04096,-0.04096 0.132808,0.04096 0.173765,0 0.273439,-0.273439 -0.39407,-0.457679 -0.52129,-0.52129 -0.231685,-0.11584 -0.63713,0.115842 -0.868815,0 -0.202411,-0.101206 -0.318878,-0.246319 -0.52129,-0.347525 -0.103611,-0.05181 -0.265612,0.08191 -0.347525,0 -0.04096,-0.04096 0.05181,-0.14786 0,-0.173762 -0.185348,-0.09267 -0.509704,0.09267 -0.695052,0 -0.07327,-0.03664 -0.100497,-0.137131 -0.173763,-0.173763 -0.277347,-0.138673 -1.042577,0.03736 -1.042577,-0.347528 -2.080212,-0.432747 -4.15442,-0.347524 -6.429231,-0.347524 -0.439332,0 -1.159245,-0.134874 -1.563867,0 -0.543619,0.181207 -0.998443,0.234441 -1.563867,0.347526 -0.699243,0.139849 -0.07984,0.1268 -0.521289,0.347526 -0.155418,0.07771 -0.356443,-0.05495 -0.521289,0 -0.106041,0.03535 -0.415248,0.312179 -0.521289,0.347526 -0.109897,0.03663 -0.243913,-0.05181 -0.347526,0 -0.948441,0.474221 -1.990444,0.908341 -2.953971,1.390104 -0.635633,0.317817 -1.038449,1.097747 -1.73763,1.563863 -0.41062,0.27375 -0.846529,0.62228 -1.21634,0.86882 -0.204467,0.13631 -0.301495,0.41139 -0.521289,0.52129 -0.05181,0.0259 -0.132807,-0.041 -0.173763,0 -0.04096,0.0409 0.0259,0.12196 0,0.17376 -0.04847,0.0969 -0.474275,0.64804 -0.521289,0.69505 -0.04096,0.041 -0.132807,-0.041 -0.173763,0 -0.20553,0.20553 -0.369794,1.08712 -0.521289,1.39011 -0.07327,0.14653 -0.274261,0.20099 -0.347526,0.34752 -0.05266,0.10531 -0.100949,0.44848 -0.173763,0.52129 -0.04096,0.041 -0.121957,-0.0259 -0.173763,0 -0.167932,0.084 -0.611086,0.52712 -0.695052,0.69505 -0.05181,0.10362 0.05181,0.24392 0,0.34753 -0.131836,0.26367 -0.534277,0.72103 -0.695052,1.04258 -0.06951,0.13901 0.0695,0.38228 0,0.52129 -0.264951,0.5299 -0.137753,-0.31781 -0.347526,0.52129 -0.141503,0.56601 -0.262738,1.04676 -0.521289,1.56386 -0.08339,0.16677 0.05562,0.52818 0,0.69505 -0.0259,0.0777 -0.137131,0.1005 -0.173763,0.17377 -0.08339,0.16677 0.05562,0.52818 0,0.69505 -0.0259,0.0777 -0.14786,0.0961 -0.173763,0.17376 -0.07314,0.21943 -0.29718,4.09725 -0.173763,4.34408 0.101206,0.20241 0.24632,0.31887 0.347526,0.52129 0.0953,0.1906 0.133556,0.94206 0.173763,1.04257 0.07721,0.19304 0.253777,0.3338 0.347526,0.52129 0.05181,0.10362 -0.05181,0.24392 0,0.34753 0.29883,0.59766 0.665189,1.30052 0.868815,1.91139 0.03535,0.10604 0.312179,0.41525 0.347526,0.52129 0.08516,0.25548 0.05372,0.62872 0.173763,0.86882 0.175695,0.35139 0.349927,0.69985 0.521289,1.04257 0.137547,0.2751 0.523675,0.43799 0.695052,0.69506 0.382828,0.0875 0.09185,0.35746 0.173763,0.52129 0.103108,0.20621 1.35765,1.46075 1.563867,1.56386 0.05181,0.0259 0.132806,-0.041 0.173763,0 0.04096,0.041 -0.0259,0.12196 0,0.17377 0.192099,0.38419 0.107844,0.0539 0.347525,0.17376 0.266132,0.13306 0.135886,0.30965 0.347526,0.52129 0.05764,0.0576 0.592453,0.29622 0.695052,0.34752 0.279676,0.13984 0.587175,0.60117 0.868815,0.69506 0.109898,0.0366 0.237629,-0.0366 0.347526,0 0.247695,0.0826 0.250212,0.25021 0.347526,0.34752 0.09763,0.0976 0.743472,0.13198 0.868815,0.17376 0.155419,0.0518 0.200997,0.27427 0.347526,0.34753 0.103613,0.0518 0.243914,-0.0518 0.347526,0 0.72316,0.36158 -0.185758,-0.012 0.173763,0.34753 0.08191,0.0819 0.243914,-0.0518 0.347526,0 0.14653,0.0733 0.200996,0.27426 0.347526,0.34752 0.105311,0.0527 0.448475,0.10095 0.521289,0.17377 0.04096,0.041 -0.04096,0.1328 0,0.17376 0.08706,0.0871 0.581137,0.0599 0.695052,0.17376 0.04096,0.041 -0.04096,0.13281 0,0.17376 0.08319,0.0832 1.748877,0.98841 1.911393,1.04258 0.125344,0.0418 0.77119,0.0761 0.868815,0.17377 0.04096,0.041 -0.04096,0.1328 0,0.17376 0.08191,0.0819 0.243914,-0.0518 0.347526,0 0.175962,0.088 1.341565,0.64651 1.390104,0.69505 0.04096,0.041 -0.05181,0.14786 0,0.17376 0.103612,0.0518 0.237629,-0.0366 0.347526,0 0.198972,0.0663 0.508729,0.25437 0.695052,0.34753 0.14653,0.0733 0.200996,0.27426 0.347526,0.34752 0.103612,0.0518 0.243914,-0.0518 0.347526,0 0.202412,0.10121 0.318877,0.24633 0.521289,0.34753 0.136175,0.0681 0.904487,0.20944 1.042578,0.34753 0.04096,0.041 -0.04096,0.1328 0,0.17376 0.05781,0.0578 0.659985,-0.0117 0.695052,0 0.07771,0.0259 0.100498,0.13713 0.173763,0.17376 0.104913,0.0525 0.440965,-0.0803 0.521289,0 0.161838,0.16184 -0.01363,0.17377 0.347526,0.17377 -0.521289,0.17376 -1.042578,0.34752 -1.563867,0.52128 -0.05792,0 -0.132807,-0.041 -0.173763,0 -0.04096,0.041 0.0259,0.12196 0,0.17377 -0.36158,0.72316 0.012,-0.18576 -0.347526,0.17376 -0.05792,0.0579 -0.115842,0.46337 -0.173763,0.52129 -0.04096,0.041 -0.132807,-0.041 -0.173763,0 -0.04096,0.041 0.04096,0.13281 0,0.17376 -0.04096,0.041 -0.132807,-0.041 -0.173763,0 -0.04096,0.041 0.0259,0.12196 0,0.17377 -0.07326,0.14653 -0.274261,0.20099 -0.347526,0.34752 -0.103518,0.20704 -0.190608,0.7119 -0.347526,0.86882 -0.231684,0.23168 -0.166736,-0.36861 -0.347526,0.17376 -0.03663,0.1099 0.03663,0.23763 0,0.34753 -0.09943,0.29827 -0.595626,0.57053 -0.695052,0.86881 -0.03663,0.1099 0.03663,0.23763 0,0.34753 -0.05181,0.15542 -0.274261,0.20099 -0.347526,0.34752 -0.0259,0.0518 0.03213,0.12557 0,0.17377 -0.136311,0.20446 -0.384978,0.31682 -0.521289,0.52128 -0.847697,1.27155 -1.945201,2.84783 -2.606445,4.17032 -0.391852,0.7837 -1.818552,1.64479 -2.432682,2.25892 -0.293072,0.29307 -0.530095,0.5389 -0.695052,0.86881 -0.36158,0.72316 0.012,-0.18576 -0.347526,0.17376 -0.04096,0.041 0.0259,0.12196 0,0.17377 -0.06542,0.13083 -0.753471,0.96568 -0.868815,1.04257 -0.866375,0.57759 -1.914652,1.22612 -2.258919,2.25892 -0.511117,-0.18425 -1.491283,1.46599 -2.085155,1.9114 -0.763487,0.57261 -1.618654,1.33061 -2.432682,1.73763 -0.72316,0.36158 0.185758,-0.012 -0.173763,0.34752 -0.211641,0.21164 -0.388224,0.0814 -0.521289,0.34753 -0.121587,0.24317 -0.244108,0.51026 -0.521289,0.69505 -0.649182,0.43279 -1.084634,1.09865 -1.563867,1.73763 -0.23066,0.30755 -0.644731,0.35893 -0.868815,0.69505 -0.280896,0.42135 -0.513422,1.03471 -0.868815,1.39011 -0.09158,0.0916 -0.255945,0.0822 -0.347526,0.17376 -0.183162,0.18316 -0.164364,0.51189 -0.347526,0.69505 -0.327559,0.16378 -0.31491,0.11167 -0.521289,0.34753 -0.326257,0.37286 -2.932538,3.64188 -3.47526,3.82278 -0.109897,0.0366 -0.243914,-0.0518 -0.347526,0 -0.550159,0.27508 -2.0773684,2.07348 -2.4326824,2.60645 -0.180337,0.2705 -0.439658,0.35102 -0.695052,0.52129 -0.329944,0.21996 -0.487664,0.55773 -0.695052,0.86881 -0.159364,0.23905 -0.268067,0.17871 -0.521289,0.34753 -0.382266,0.25484 -1.733888,1.38262 -1.911393,1.73763 -0.279939,0.55988 -0.809377,1.19501 -1.216341,1.73763 -0.19659,0.26212 -0.513304,0.42243 -0.695052,0.69505 -0.03213,0.0482 0.0259,0.12196 0,0.17376 -0.104258,0.20852 -0.417031,0.31278 -0.521289,0.52129 -0.05266,0.10531 -0.100948,0.44848 -0.173763,0.52129 -0.04096,0.041 -0.132806,-0.041 -0.173763,0 -0.07006,0.0701 -0.113696,0.43119 -0.173763,0.52129 -0.200468,0.3007 -0.53287,0.54445 -0.695052,0.86881 -0.05266,0.10532 -0.100948,0.44848 -0.173763,0.52129 -0.04096,0.041 -0.132806,-0.041 -0.173763,0 -0.169621,0.16962 -0.385803,0.94537 -0.521289,1.21634 -0.16217807,0.32436 0.162179,0.89199 0,1.21635 -0.101205,0.20241 -0.24632007,0.31887 -0.34752607,0.52128 -0.180767,0.36154 -0.04284,1.86856 0.173763,2.08516 0.04096,0.041 0.12195707,-0.0259 0.17376307,0 0.14653,0.0733 0.200997,0.27426 0.347526,0.34753 0.144673,0.0723 0.584832,-0.11022 0.695052,0 0.04096,0.041 -0.04096,0.1328 0,0.17376 0.140671,0.14067 1.169099,0 1.390104,0 0.566026,0 1.094314,0.061 1.563867,-0.17376 0.139011,-0.0695 0.382279,0.0695 0.521289,0 0.14653,-0.0733 0.200996,-0.27426 0.347526,-0.34753 0.201279,-0.10064 0.500068,-0.0763 0.695052,-0.17376 0.14653,-0.0733 0.200996,-0.27426 0.347526,-0.34753 0.284142,-0.14207 0.618594,-0.22241 0.868815,-0.34752 0.508297,-0.25415 0.890668,-0.79286 1.390104,-1.04258 0.7231604,-0.36158 -0.185759,0.012 0.173763,-0.34753 0.262729,-0.26273 0.7687894,-0.51253 1.0425784,-0.69505 0.249947,-0.16663 0.571015,-0.76955 0.868815,-0.86882 0.109897,-0.0366 0.237629,0.0366 0.347526,0 0.306426,-0.10214 0.520853,-0.4053 0.868815,-0.52128 0.201975,-0.0673 0.511041,-0.0818 0.695052,-0.17377 0.19539,-0.0977 0.315458,-0.45268 0.521289,-0.52129 0.109897,-0.0366 0.237629,0.0366 0.347526,0 0.155418,-0.0518 0.200996,-0.27426 0.347526,-0.34752 0.534074,-0.26704 1.198882,-0.68342 1.73763,-1.04258 0.447768,-0.29851 0.944859,-0.64619 1.390104,-0.86882 0.19539,-0.0977 0.315458,-0.45267 0.521289,-0.52128 0.109897,-0.0366 0.235142,0.0281 0.347526,0 0.3145,0.10473 0.323168,-0.28149 0.521289,-0.34753 0.109897,-0.0366 0.235142,0.0281 0.347526,0 0.3145,0.10473 0.323168,-0.28149 0.521289,-0.34753 0.426636,-0.14221 0.963467,-0.20531 1.390104,-0.34752 0.07771,-0.0259 0.09605,-0.14786 0.173763,-0.17377 0.166872,-0.0556 0.528281,0.0834 0.695052,0 0.315418,-0.1577 0.713087,-0.41145 1.042578,-0.52128 0.109897,-0.0366 0.237628,0.0366 0.347526,0 0.323617,-0.10788 0.737567,-0.36879 1.042577,-0.52129 0.14653,-0.0733 0.200997,-0.27426 0.347526,-0.34753 0.517368,-0.25868 1.203886,-0.54857 1.73763,-0.86881 0.378501,-0.2271 -0.07842,-0.1976 0.521289,-0.34753 0.426972,-0.10674 0.792416,-0.20622 1.216341,-0.34753 0.446999,-0.149 1.25371,0 1.73763,0 0.252962,0 2.572112,-0.0343 2.606445,0 0.04096,0.041 -0.04096,0.13281 0,0.17377 0.08032,0.0803 0.416376,-0.0525 0.521289,0 0.13665,0.0683 0.615164,0.26763 0.695052,0.34752 0.04096,0.041 -0.04523,0.13758 0,0.17377 0.03051,0.0244 2.986764,1.51687 3.127734,1.56386 0.109897,0.0366 0.237629,-0.0366 0.347526,0 0.155418,0.0518 0.192108,0.29572 0.347526,0.34753 0.109897,0.0366 0.237629,-0.0366 0.347526,0 0.247617,0.0825 0.366231,0.34752 0.695052,0.34752 1.091915,-0.15683 2.733013,1.25853 3.649023,1.56387 0.109897,0.0366 0.237628,-0.0366 0.347526,0 0.143842,0.048 1.012506,0.7669 1.216341,0.86882 0.362842,0.18142 0.847809,0.2756 1.216341,0.52129 0.136311,0.0909 0.192107,0.29572 0.347526,0.34752 0.109897,0.0366 0.237628,-0.0366 0.347526,0 0.368221,0.12274 0.689497,0.57736 1.042578,0.69505 0.109897,0.0366 0.237628,-0.0366 0.347526,0 0.155418,0.0518 0.192107,0.29572 0.347526,0.34753 0.109897,0.0366 0.237628,-0.0366 0.347526,0 0.155418,0.0518 0.200996,0.27426 0.347526,0.34753 0.972382,0.48619 2.086002,0.52157 3.127733,0.86881 0.314501,-0.10473 0.323169,0.28149 0.521289,0.34753 0.109898,0.0366 0.237629,-0.0366 0.347526,0 0.07771,0.0259 0.09771,0.14334 0.173763,0.17376 1.203715,0.48148 2.545738,0.82834 3.649023,1.56387 1.01687,0.67791 2.084241,1.21588 3.127734,1.73763 0.583359,0.29168 0.980509,0.92466 1.563867,1.216336 0.180863,0.0904 1.308458,0.6134 1.390104,0.69505 0.04096,0.041 -0.04096,0.13281 0,0.17376 0.117898,0.1179 0.536026,-0.0795 0.695052,0 0.07326,0.0366 0.100498,0.13713 0.173763,0.17377 0.417031,0.20851 1.146836,-0.20852 1.563867,0 0.292472,0.14623 0.337729,0.17376 0.695052,0.17376 0.857889,0.54714 2.045839,0.21858 2.953971,0.52129 0.509305,0.16977 1.094676,0.63422 1.563867,0.86881 0.14653,0.0733 0.200996,0.27426 0.347526,0.34753 0.565156,0.28258 0.413326,0.0439 0.868815,0.34752 0.32769,0.21846 0.693865,0.5207 1.042578,0.69506 0.05181,0.0259 0.115842,0 0.173763,0 0.115842,0.0579 0.239762,0.10192 0.347526,0.17376 0.205755,0.13717 0.469558,0.44612 0.695052,0.52129 0.109897,0.0366 0.235142,-0.0281 0.347526,0 0.46097,0.11524 1.003265,0.61092 1.390104,0.86881 0.493163,0.32878 0.902612,0.35879 1.390104,0.52129 0.19812,0.066 0.334499,0.25413 0.521288,0.34753 1.517835,0.75892 -0.736071,-0.30328 0.695052,0.17376 0.450596,0.1502 0.889562,0.56992 1.390104,0.69505 0.3251,0.0813 0.727347,0.0687 1.042578,0.17377 0.412189,0.13739 0.825799,0.56487 1.216341,0.69505 0.109898,0.0366 0.237629,-0.0366 0.347526,0 0.36184,0.12061 3.10757,1.59911 3.301497,1.73763 0.330599,0.23614 0.677179,0.68611 1.042579,0.86881 0.2136,0.1068 0.48145,0.067 0.69505,0.17377 0.0733,0.0366 0.11584,0.11584 0.17376,0.17376 0.17377,0.11584 0.32739,0.26996 0.52129,0.34752 0.10756,0.043 0.23763,-0.0366 0.34753,0 0.30847,0.10283 0.75374,0.37687 1.04258,0.52129 0.14653,0.0733 0.21121,0.25666 0.34752,0.34753 0.38938,0.25958 0.83547,0.50461 1.21634,0.69505 0.20528,0.10264 0.3296,0.3935 0.52129,0.52129 0.63885,0.4259 1.37276,0.97887 2.08516,1.21634 0.81023,1.32154 1.10466,1.13259 1.91139,1.73763 0.90386,0.67789 1.51267,1.64558 2.43268,2.25892 0.71951,0.47967 1.36588,1.08435 2.08516,1.56387 0.30553,0.20368 0.785872,0.43834 1.042582,0.69505 0.0916,0.0916 0.0822,0.25594 0.17376,0.34753 0.0916,0.0916 0.24391,0.096 0.34753,0.17376 0.68457,0.51343 1.39403,1.2647 1.91139,1.91139 0.29966,0.37457 0.70438,0.53062 1.04258,0.86882 0.17888,0.17887 0.16865,0.34241 0.34752,0.52129 0.26659,0.26658 0.76861,0.42108 1.04258,0.69505 0.0916,0.0916 0.0822,0.25594 0.17376,0.34752 0.0916,0.0916 0.23977,0.10192 0.34753,0.17377 0.43395,0.2893 1.10081,0.95615 1.3901,1.3901 0.11585,0.17376 0.28149,0.32317 0.34753,0.52129 0.0366,0.1099 -0.0518,0.24391 0,0.34752 0.10426,0.20852 0.41703,0.31278 0.52129,0.52129 0.0819,0.16383 0.0795,0.36423 0.17376,0.52129 0.60148,1.00246 1.60698,1.80229 2.25892,2.78021 0.22277,0.33416 0.64604,0.53466 0.86882,0.86882 0.14368,0.21552 0.20384,0.47952 0.34752,0.69505 0.26609,0.39914 0.75485,0.65894 1.04258,1.04258 0.21839,0.29118 0.70905,0.72304 0.86882,1.04257 0.0259,0.0518 -0.041,0.13281 0,0.17377 0.041,0.0409 0.11584,0 0.17376,0 0.0579,0.0579 0.12832,0.1056 0.17376,0.17376 0.21399,0.32098 0.86882,1.26595 0.86882,1.56387 0.55412,-0.19799 2.13695,1.50288 2.60644,1.73763 0.52632,0.26316 1.86104,-0.14859 2.25892,-0.34753 0.10361,-0.0518 0.26561,0.0819 0.34753,0 0.0869,-0.0869 0.0869,-0.26064 0.17376,-0.34753 0.10675,-0.10675 0.40492,-0.11479 0.52129,-0.34752 0.0259,-0.0518 -0.041,-0.13281 0,-0.17376 0.041,-0.041 0.1328,0.041 0.17376,0 0.0819,-0.0819 -0.0819,-0.26562 0,-0.34753 0.041,-0.041 0.14786,0.0518 0.17376,0 0.21557,-0.43113 0,-1.60876 0,-2.08516 0,-1.64188 0.17084,-3.48111 -0.52129,-4.86536 -0.0834,-0.16677 0.0556,-0.52818 0,-0.69505 -0.0259,-0.0777 -0.14786,-0.0961 -0.17376,-0.17377 -0.0549,-0.16484 0.0777,-0.36587 0,-0.52128 -0.0366,-0.0733 -0.14786,-0.0961 -0.17376,-0.17377 -0.10519,-0.31558 -0.0358,-1.11412 -0.17376,-1.3901 -0.45699,-0.91397 -0.5178,-2.23795 -0.69506,-3.3015 -0.0381,-0.22853 0.0733,-0.47526 0,-0.69505 -0.0259,-0.0777 -0.14786,-0.096 -0.17376,-0.17376 -0.16213,-0.4864 0.22816,-1.28131 0,-1.73763 -0.0366,-0.0733 -0.13713,-0.1005 -0.17376,-0.17377 -0.006,-0.012 -0.17377,-1.86483 -0.17377,-2.08515 0,-0.79102 0.0819,-0.01 -0.17376,-0.52129 -0.11584,-0.23168 0.11584,-0.63713 0,-0.86882 -0.1968,-0.3936 -0.15072,-0.82273 -0.34752,-1.21634 -0.13901,-0.27802 0.13901,-0.76455 0,-1.04257 -0.13667,-0.27334 -0.17377,-0.19701 -0.17377,-0.52129 0,-0.14642 -0.14292,-1.04258 -0.17376,-1.04258 -0.017,0 -0.0516,2.20729 0.17376,2.43268 0.041,0.041 0.13281,-0.041 0.17377,0 0.0869,0.0869 0.0869,0.26064 0.17376,0.34753 0.2022,0.2022 1.42211,0.33152 1.73763,0.17376 0.20241,-0.10121 0.31888,-0.24632 0.52129,-0.34753 0.13901,-0.0695 0.38228,0.0695 0.52129,0 0.0518,-0.0259 -0.041,-0.1328 0,-0.17376 0.0677,-0.0677 0.58901,0 0.69505,0 0.4075,0 -0.0819,0.041 0.34752,-0.17376 0.4507,-0.22535 1.28694,0.0516 1.73763,-0.17377 0.2225,-0.11124 0.46337,-0.27029 0.69506,-0.34752 0.0351,-0.0117 0.63724,0.0578 0.69505,0 0.041,-0.041 -0.041,-0.13281 0,-0.17376 0.0869,-0.0869 0.43441,0.0869 0.52129,0 0.041,-0.041 -0.041,-0.13281 0,-0.17377 0.0728,-0.0728 0.41598,-0.12111 0.52129,-0.17376 0.40365,-0.20183 0.64271,-0.66888 1.04257,-0.86882 0.61804,-0.30901 1.29336,-0.38603 1.9114,-0.69505 0.30846,-0.15423 0.56035,-0.36705 0.86881,-0.52129 0.17819,-0.0891 0.51687,-0.0847 0.69505,-0.17376 0.0733,-0.0366 0.0961,-0.14786 0.17377,-0.17376 0.10989,-0.0366 0.23763,0.0366 0.34752,0 0.22377,-0.0746 0.47129,-0.4467 0.69506,-0.52129 0.10989,-0.0366 0.23762,0.0366 0.34752,0 0.19812,-0.066 0.3345,-0.25413 0.52129,-0.34753 1.53125,0.0715 1.63775,-0.38447 2.60645,-0.86881 0.2758,-0.13791 0.40662,-0.58039 0.52128,-0.69505 0.0819,-0.0819 0.26562,0.0819 0.34753,0 0.041,-0.041 -0.0259,-0.12196 0,-0.17377 0.14278,-0.28555 0.48395,-0.24197 0.69505,-0.34752 0.2751,-0.13755 0.43799,-0.52368 0.69505,-0.69506 0.12825,-0.0855 1.67714,-1.02241 1.73763,-1.04257 0.1099,-0.0366 0.23763,0.0366 0.34753,0 0.24981,-0.0833 0.43897,-0.43593 0.69505,-0.52129 0.16485,-0.0549 0.36587,0.0777 0.52129,0 0.43769,-0.21885 0.90669,-0.36015 1.3901,-0.52129 0.10605,-0.0353 0.41525,-0.31218 0.52129,-0.34753 0.31278,-0.10426 0.72981,0.10426 1.04258,0 0.0777,-0.0259 0.0961,-0.14786 0.17376,-0.17376 0.21226,-0.0708 1.06461,-0.022 1.21635,-0.17376 0.041,-0.041 -0.041,-0.13281 0,-0.17377 0.10071,-0.10071 0.59434,-0.24681 0.69505,-0.34752 0.041,-0.041 -0.0259,-0.12196 0,-0.17377 0.2481,-0.4962 1.11792,-0.8196 1.56386,-1.04257 0.20786,-0.10393 0.65004,0.0547 0.86882,0 0.42054,-0.10514 0.80309,-0.20978 1.21634,-0.34753 0.34116,-0.11372 2.85082,-0.0353 3.12773,-0.17376 0.0733,-0.0366 0.1005,-0.13713 0.17377,-0.17377 0.10491,-0.0525 0.44096,0.0803 0.52129,0 0.0409,-0.041 -0.041,-0.1328 0,-0.17376 0.1448,-0.1448 0.72401,0.1448 0.86881,0 0.041,-0.0409 -0.041,-0.1328 0,-0.17376 0.002,-0.002 0.73879,-0.13042 0.86882,-0.17376 0.15638,-0.0521 0.3649,0.0521 0.52129,0 0.0619,-0.0206 1.03575,-0.51447 1.04257,-0.52129 0.041,-0.041 -0.041,-0.13281 0,-0.17377 0.0728,-0.0728 0.41598,-0.1211 0.52129,-0.17376 0.72316,-0.36158 -0.18576,0.012 0.17377,-0.34753 0.0579,-0.0579 0.46336,-0.11584 0.52128,-0.17376 0.041,-0.041 -0.041,-0.1328 0,-0.17376 0.0579,-0.0579 0.46337,-0.11584 0.52129,-0.17376 0.0696,-0.0696 0.0941,-0.22082 0.34753,-0.34753 0.10361,-0.0518 0.26561,0.0819 0.34753,0 0.041,-0.041 -0.041,-0.13281 0,-0.17376 0.20511,-0.20511 0.89532,0.10014 1.04257,0.17376 0.22855,0.11427 0.44354,0.0899 0.69506,0.17376 0.15541,0.0518 0.20099,0.27426 0.34752,0.34753 0.10361,0.0518 0.26561,-0.0819 0.34753,0 0.041,0.041 -0.041,0.13281 0,0.17376 0.0819,0.0819 0.24391,-0.0518 0.34752,0 0.85591,0.42796 1.96604,0.5304 2.95397,0.69505 0.1714,0.0286 0.36587,-0.0777 0.52129,0 0.0733,0.0366 0.0961,0.14786 0.17377,0.17377 0.28362,0.0945 0.51299,0.008 0.69505,-0.17377 0.41075,1.14578 1.17726,0.16074 1.73763,0.34753 0.54268,0.18089 1.04917,0.61147 1.56386,0.86881 0.10362,0.0518 0.24392,-0.0518 0.34753,0 0.30847,0.15424 0.56035,0.36706 0.86882,0.52129 0.31101,0.15551 1.52919,0.42574 1.91139,0.52129 0.7529,0.18823 1.38794,0.46265 2.08515,0.69505 0.10605,0.0353 0.41525,0.31218 0.52129,0.34753 0.4052,0.13507 0.99865,0.1518 1.39011,0.34753 0.42944,0.21472 -0.06,0.17376 0.34752,0.17376 1.1526,0 -0.24573,-0.0819 0.52129,0.17376 0.42628,0.14209 2.27786,-0.009 2.60645,-0.17376 0.25915,-0.12958 0.42998,-0.38876 0.69505,-0.52129 0.10531,-0.0526 0.44847,-0.10095 0.52129,-0.17376 0.0409,-0.041 -0.041,-0.13281 0,-0.17377 0.006,-0.006 0.45942,-0.11189 0.52129,-0.17376 0.1195,-0.1195 -0.15734,-2.22607 -0.17377,-2.25892 -0.0366,-0.0733 -0.13713,-0.1005 -0.17376,-0.17376 -0.0695,-0.13901 0.0695,-0.38228 0,-0.52129 -0.12671,-0.25342 -0.27797,-0.27797 -0.34752,-0.34753 -0.0819,-0.0819 0.0518,-0.24391 0,-0.34752 -0.26224,-0.52448 -0.51986,-1.04042 -0.86882,-1.56387 0.0173,-0.34423 -0.25594,-0.0822 -0.34753,-0.17376 -0.0409,-0.041 0.0259,-0.12196 0,-0.17376 -0.12199,-0.244 -0.62107,-0.44731 -0.69505,-0.52129 -0.0916,-0.09159 -0.0822,-0.255946 -0.17376,-0.347526 -0.0387,-0.0387 -1.66176,-1.01729 -1.73763,-1.04258 -0.1099,-0.0366 -0.23763,0.0366 -0.34753,0 -0.19959,-0.0665 -0.24108,-0.41484 -0.34752,-0.52129 -0.062,-0.42685 -0.36889,-0.0722 -0.52129,-0.17376 -0.32219,-0.21479 -0.40442,-0.37597 -0.69505,-0.52129 -0.56428,-0.28214 -0.86326,-1.12668 -1.39011,-1.3901 -0.61819,-0.3091 -1.07712,-1.05985 -1.73763,-1.39011 -0.0518,-0.0259 -0.1328,0.041 -0.17376,0 -0.1043,-0.1043 -0.14218,-0.38439 -0.34753,-0.52128 -0.36575,-0.24384 -0.69911,-0.34956 -1.04257,-0.52129 -0.34366,-0.17183 -0.69983,-0.75457 -1.04258,-0.86882 -0.1099,-0.0366 -0.23763,0.0366 -0.34753,0 -0.0524,-0.0175 -0.83282,-0.59017 -1.04258,-0.69505 -0.1992,-0.0996 -0.2417,-0.36256 -0.34752,-0.52129 -0.1369,-0.20534 -0.41699,-0.24322 -0.52129,-0.34753 -0.0579,-0.0579 -0.11584,-0.46336 -0.17376,-0.52128 -0.041,-0.041 -0.12196,0.0259 -0.17377,0 -0.72316,-0.36158 0.18576,0.012 -0.17376,-0.34753 -0.009,-0.009 -0.51187,-0.33811 -0.52129,-0.34753 -0.041,-0.041 0.041,-0.1328 0,-0.17376 -0.35952,-0.35952 0.0141,0.5494 -0.34752,-0.17376 -0.0259,-0.0518 0.041,-0.13281 0,-0.17377 -0.17387,-0.17386 -1.65963,-0.38652 -2.08516,-0.17376 -0.25342,0.12671 -0.27797,0.27797 -0.34753,0.34753 -0.0819,0.0819 -0.26561,-0.0819 -0.34752,0 -0.041,0.041 0.041,0.1328 0,0.17376 -0.0579,0.0579 -0.46337,0.11584 -0.52129,0.17376 -0.041,0.041 0.041,0.13281 0,0.17377 -0.0819,0.0819 -0.26562,-0.0819 -0.34753,0 -0.0409,0.041 0.041,0.1328 0,0.17376 -0.0677,0.0677 -0.58901,0 -0.69505,0 -0.46337,0 0.0579,-0.0579 -0.17376,0.17376 -0.23185,0.23185 -1.04258,-0.30916 -1.04258,0.17377 -0.84854,1.05763 -2.21293,-0.4574 -3.12773,0 -0.55392,0.27695 -0.71435,0.70791 -1.21635,1.04257 -0.75891,0.50595 0.0573,-0.077 -0.69505,0.17377 -0.15542,0.0518 -0.20099,0.27426 -0.34752,0.34752 -0.35957,0.17978 -0.8701,0.34817 -1.21634,0.52129 -0.67263,0.33632 -1.07757,1.23384 -1.73763,1.56387 -0.41704,0.20851 -1.14684,-0.20852 -1.56387,0 -0.0733,0.0366 -0.1005,0.13713 -0.17376,0.17376 -0.28907,0.14454 -1.85817,0 -2.25892,0 -0.24588,0 -1.85432,0.2023 -2.25892,0 -0.0733,-0.0366 -0.1005,-0.13713 -0.17377,-0.17376 -0.25259,-0.1263 -1.83256,-0.1263 -2.08515,0 -0.14653,0.0733 -0.201,0.27426 -0.34753,0.34752 -0.0518,0.0259 -0.1328,-0.041 -0.17376,0 -0.041,0.041 0.041,0.13281 0,0.17377 -0.10071,0.10071 -0.59434,0.24681 -0.69505,0.34752 -0.0579,0.0579 -0.11584,0.46337 -0.17377,0.52129 -0.0409,0.041 -0.1328,-0.0409 -0.17376,0 -0.041,0.041 0.0259,0.12196 0,0.17377 -0.084,0.16793 -0.52712,0.61108 -0.69505,0.69505 -0.10361,0.0518 -0.24391,-0.0518 -0.34753,0 -0.50425,0.25212 -1.05128,0.69795 -1.56386,0.86881 -0.1099,0.0366 -0.23763,-0.0366 -0.34753,0 -0.0777,0.0259 -0.096,0.14786 -0.17376,0.17377 -0.2198,0.0733 -0.48783,-0.10362 -0.69505,0 -0.13499,0.0675 0.19113,0.17376 -0.52129,0.17376 -0.60836,0 -1.23109,0.0795 -1.73763,-0.17376 -0.25421,-0.12711 -0.70906,0.0799 -1.21634,-0.17377 -0.23169,-0.11584 -0.63713,0.11584 -0.86882,0 -0.58093,-0.29047 -0.63158,-0.34752 -1.3901,-0.34752 -0.16479,0 -0.93765,-0.10494 -1.04258,0 -0.0819,0.0819 0,0.23168 0,0.34752 0.20669,1.23146 -1.44205,0.10389 -1.73763,0.69505 -0.0259,0.0518 0.041,0.13281 0,0.17377 -0.0819,0.0819 -0.26561,-0.0819 -0.34753,0 -0.041,0.0409 0.041,0.1328 0,0.17376 -0.0869,0.0869 -0.4344,-0.0869 -0.52129,0 -0.0409,0.041 0.041,0.13281 0,0.17376 -0.0869,0.0869 -0.4344,-0.0869 -0.52128,0 -0.041,0.041 0.041,0.13281 0,0.17377 -0.0579,0.0579 -0.46337,0.11584 -0.52129,0.17376 -0.041,0.041 0.0259,0.12196 0,0.17376 -0.36158,0.72316 0.012,-0.18576 -0.34753,0.17377 -0.10675,0.10675 -0.1148,0.40492 -0.34753,0.52128 -0.0518,0.0259 -0.1328,-0.0409 -0.17376,0 -0.041,0.041 0.041,0.132806 0,0.173766 -0.0234,0.0234 -0.49011,0.14258 -0.52129,0.17376 -0.041,0.041 0.041,0.13281 0,0.17376 -0.0758,0.0758 -0.87482,0.43741 -1.04258,0.52129 -0.3483,0.17415 -1.57881,0 -1.91139,0 -0.23579,0 -2.58356,-0.0229 -2.60644,0 -0.041,0.041 0.041,0.13281 0,0.17377 -0.041,0.041 -0.12196,-0.0259 -0.17377,0 -0.72316,0.36157 0.18576,-0.012 -0.17376,0.34752 -0.16231,0.16231 -0.70651,0.18522 -0.86881,0.34753 -0.041,0.041 0.041,0.1328 0,0.17376 -0.0819,0.0819 -0.26562,-0.0819 -0.34753,0 -0.041,0.041 0.041,0.13281 0,0.17376 -0.22596,0.22596 -2.3536,-0.2133 -2.78021,0 -0.34634,0.17317 -0.69624,0.17436 -1.04258,0.34753 -0.41688,0.20844 -1.62951,0 -2.08515,0 -0.11584,0 -0.24392,0.0518 -0.34753,0 -0.20241,-0.10121 -0.31888,-0.24632 -0.52129,-0.34753 -0.10361,-0.0518 -0.26561,0.0819 -0.34752,0 -0.041,-0.041 0.0409,-0.1328 0,-0.17376 -0.0376,-0.0376 -0.64021,-0.0274 -0.69505,0 -0.49837,0.24918 -0.89438,0.79471 -1.39011,1.04258 -0.20851,0.10426 -0.31277,0.41703 -0.52129,0.52129 -0.324,0.162 -0.7481,0.0531 -1.04258,0.34752 -0.0289,2.33127 -1.21957,-0.25903 -1.73763,0 -0.14653,0.0733 -0.20099,0.27426 -0.34752,0.34753 -0.17764,0.0888 -0.92005,0.39876 -1.04258,0.52129 -0.041,0.041 0.041,0.1328 0,0.17376 -0.13809,0.13809 -0.9064,0.27944 -1.04258,0.34753 -0.30846,0.15423 -0.56035,0.36705 -0.86881,0.52129 -0.16823,0.0841 -0.32989,-0.009 -0.69505,0.17376 -0.36258,0.18129 -1.15458,0 -1.56387,0 -1.01116,0 -1.946562,0.0693 -2.780212,-0.34753 -0.10361,-0.0518 -0.24391,0.0518 -0.34753,0 -0.78844,-0.39422 -1.33019,-1.13845 -2.08515,-1.3901 -0.88185,-0.29395 -2.05175,0.22555 -2.95397,0 -0.0795,-0.0199 -0.1005,-0.13713 -0.17377,-0.17376 -0.14473,-0.0724 -1.75801,-0.17377 -2.08515,-0.17377 -0.37879,0 -1.23241,0.16573 -1.56387,0 -0.47528,-0.23764 -0.91482,-0.45741 -1.3901,-0.69505 -0.10492,-0.0525 -0.44097,0.0803 -0.52129,0 -0.041,-0.041 0.041,-0.13281 0,-0.17376 -0.0579,-0.0579 -0.46337,-0.11584 -0.52129,-0.17377 -0.041,-0.0409 0.041,-0.1328 0,-0.17376 -0.041,-0.041 -0.12196,0.0259 -0.17376,0 -0.27802,-0.13901 -0.41703,-0.55604 -0.69505,-0.69505 -0.10362,-0.0518 -0.24392,0.0518 -0.34753,0 -0.45419,-0.2271 -0.81317,-0.11812 -1.216342,-0.52129 -0.463368,-0.0579 -0.925986,-0.12219 -1.390104,-0.17376 -0.25078,-0.0279 -1.531949,0.37944 -1.73763,0.17376 -0.04096,-0.041 0.04096,-0.13281 0,-0.17376 -0.156918,-0.15692 -0.66178,-0.24401 -0.868815,-0.34753 -0.24826,-0.12413 -0.242527,-0.36379 -0.347526,-0.52129 0.42878,-0.526056 -0.472646,-0.29888 -0.521289,-0.34752 -0.04096,-0.041 0.0259,-0.121956 0,-0.173766 -0.102001,-0.204 -0.402358,-0.28806 -0.521289,-0.34752 -0.680018,-0.34001 -1.063674,-1.22689 -1.73763,-1.56387 -0.103612,-0.0518 -0.243913,0.0518 -0.347526,0 -0.505771,-0.25288 -1.010131,-0.20909 -1.563866,-0.34752 -1.077531,-0.26939 -2.963748,-1.51899 -3.649023,-2.43269 -0.417833,-0.55711 -0.763366,-1.1792 -1.042578,-1.73763 -0.115842,-0.23168 0.115842,-0.63713 0,-0.86881 -0.235146,-0.47029 -0.03206,-0.61748 -0.173763,-1.04258 -0.0743,-0.22291 -0.273223,-0.47214 -0.347526,-0.69505 -0.03663,-0.1099 0.03663,-0.23763 0,-0.34753 -0.05181,-0.15542 -0.274261,-0.20099 -0.347526,-0.34752 -0.341449,-0.6829 -0.786207,-1.26619 -1.216341,-1.9114 -0.690935,-1.0364 -0.937456,-2.16987 -1.390104,-3.30149 -0.211183,-0.52796 -0.622014,-1.24403 -0.868815,-1.73763 -0.05181,-0.10362 0.05181,-0.24392 0,-0.34753 -0.101206,-0.20241 -0.24632,-0.31888 -0.347526,-0.52129 -0.05181,-0.10361 0.05181,-0.24391 0,-0.34752 -0.192475,-0.38495 -0.581512,-0.76218 -0.695052,-1.21635 -0.128865,-0.51545 -0.390277,-1.03981 -0.521289,-1.56386 -0.0281,-0.11239 0.03663,-0.23763 0,-0.34753 -0.08929,-0.26788 -0.347526,-0.56735 -0.347526,-0.86881 0.14393,-0.94244 -0.509234,-2.81638 -0.173763,-3.82279 0.124158,-0.37247 0.173763,-0.19624 0.173763,-0.69505 0,-0.69939 0.03918,-1.2385 0.173763,-1.91139 0.156744,-0.78372 0,-1.81403 0,-2.60645 0,-0.97702 -0.267478,-2.59278 0.173763,-3.47526 0.243823,-0.48765 0.541067,-1.07224 0.868815,-1.56387 0.196282,-0.29442 0.77637,-0.51016 0.868815,-0.69505 0.0259,-0.0518 -0.04096,-0.1328 0,-0.17376 0.04096,-0.041 0.132807,0.041 0.173763,0 0.04096,-0.041 -0.04096,-0.13281 0,-0.17376 0.21164,-0.21164 0.388223,-0.0814 0.521289,-0.34753 0.0259,-0.0518 -0.04096,-0.13281 0,-0.17376 0.04096,-0.041 0.132807,0.0409 0.173763,0 0.210353,-0.21036 0.172322,-0.69361 0.347526,-0.86882 0.04096,-0.041 0.132806,0.041 0.173763,0 0.04096,-0.041 -0.04096,-0.1328 0,-0.17376 0.06955,-0.0695 0.220816,-0.0941 0.347526,-0.34753 0.05181,-0.10361 -0.05181,-0.24391 0,-0.34752 0.12671,-0.25342 0.277973,-0.27798 0.347526,-0.34753 0.08191,-0.0819 -0.05181,-0.24391 0,-0.34752 0.07327,-0.14653 0.274261,-0.201 0.347526,-0.34753 0.05266,-0.10531 0.100949,-0.44848 0.173763,-0.52129 0.04096,-0.041 0.132806,0.041 0.173763,0 0.08191,-0.0819 -0.05181,-0.24391 0,-0.34753 0.101206,-0.20241 0.24632,-0.31887 0.347526,-0.52128 0.327318,-0.65464 -0.270794,-2.78243 -0.347529,-3.12774 z"
     id="path25"
     inkscape:label="body" /><path
     style="opacity:1;fill:none;fill-opacity:0;stroke:#000000;stroke-width:1.365"
     d="m 131.17506,90.232954 c -0.23776,0 -0.7133,-0.23776 -0.7133,0 0,0.23777 0.94397,0.0577 0.7133,0 -0.46492,-0.11623 -0.95029,-0.1254 -1.42659,-0.17832 -0.0591,-0.007 -0.1363,-0.042 -0.17833,0 -0.042,0.042 0.042,0.13629 0,0.17832 -0.0841,0.0841 -0.27258,-0.0841 -0.35665,0 -0.0892,0.0892 -0.0892,0.26749 -0.17832,0.35665 -0.042,0.042 -0.13629,-0.042 -0.17833,0 -0.0146,0.0146 -0.69872,1.05537 -0.71329,1.06994 -0.042,0.042 -0.1363,-0.042 -0.17833,0 -0.042,0.042 0.042,0.1363 0,0.17833 -0.10955,0.10956 -0.41555,0.11781 -0.53497,0.35665 -0.18045,0.3609 -0.21108,0.21108 -0.53497,0.53497 -0.042,0.042 0.042,0.13629 0,0.17832 -0.042,0.042 -0.1363,-0.042 -0.17833,0 -0.042,0.042 0.042,0.1363 0,0.17833 -0.042,0.042 -0.13629,-0.042 -0.17832,0 -0.042,0.042 0.042,0.13629 0,0.17832 -0.0841,0.0841 -0.25032,-0.0532 -0.35665,0 -0.15037,0.0752 -0.20627,0.28147 -0.35665,0.35665 -0.50785,0.25393 -2.53352,-0.2153 -2.85319,-0.53497 -0.042,-0.042 0.0266,-0.12516 0,-0.17833 -0.10699,-0.21398 -0.42798,-0.32098 -0.53497,-0.53497 -0.0266,-0.0532 0.042,-0.13629 0,-0.17832 -0.042,-0.042 -0.13629,0.042 -0.17832,0 -0.15897,-0.15896 -0.0836,-0.52391 -0.17833,-0.7133 -0.44121,-0.88243 -0.53497,-1.25219 -0.53497,-2.31822 0,-0.16905 -0.074,-0.5652 0,-0.71329 0.37107,-0.74214 -0.0123,0.19063 0.35665,-0.17833 0.0841,-0.0841 -0.0841,-0.27258 0,-0.35665 0.0892,-0.0892 0.26748,-0.0892 0.35665,-0.17832 0.0942,-0.0942 0.44077,-0.79742 0.53497,-0.89162 0.042,-0.042 0.13629,0.042 0.17832,0 0.042,-0.042 -0.0266,-0.12516 0,-0.17832 0.37107,-0.74215 -0.0123,0.19063 0.35665,-0.17833 0.042,-0.042 -0.042,-0.13629 0,-0.17832 0.0841,-0.0841 0.27259,0.0841 0.35665,0 0.0714,-0.0714 0.0966,-0.22662 0.35665,-0.35665 0.10633,-0.0532 0.27258,0.0841 0.35665,0 0.042,-0.042 -0.042,-0.1363 0,-0.17833 0.0824,-0.0824 0.4273,0.0538 0.53497,0 0.20773,-0.10386 0.32725,-0.25278 0.53497,-0.35664 0.17264,-0.0863 0.33855,0.009 0.7133,-0.17833 0.51545,-0.25772 3.66475,0.25839 3.74481,0.17833 0.042,-0.042 -0.042,-0.1363 0,-0.17833 0.0592,-0.0591 0.60801,-0.304 0.7133,-0.35665 0.23884,-0.11942 0.24709,-0.42541 0.35665,-0.53497 0.0747,-0.0747 0.42689,-0.12429 0.53497,-0.17832 0.44116,-0.22058 0.82251,-0.67875 1.24827,-0.89163 0.24705,-0.12352 0.96978,-0.0855 1.24827,-0.17832 0.21649,-0.0722 0.49647,-0.30244 0.7133,-0.35665 0.2013,-0.0503 2.69217,-0.0805 2.85319,0 0.41294,0.20647 1.44703,0.34983 1.96156,0.17833 0.52617,-0.17539 0.79101,-0.66299 1.24827,-0.89163 0.10633,-0.0532 0.25032,0.0532 0.35665,0 0.51495,-0.25747 1.04656,-0.61244 1.60492,-0.89162 0.39405,-0.19703 1.03605,0.017 1.42659,-0.17832 0.0752,-0.0376 0.10314,-0.14073 0.17833,-0.17833 0.10767,-0.0538 0.45254,0.0824 0.53497,0 0.042,-0.042 -0.042,-0.13629 0,-0.17832 0.0841,-0.0841 0.23777,0 0.35665,0 0.43205,0 1.40518,-0.18903 1.78324,0 0.14024,0.0701 0.63131,0.27466 0.7133,0.35665 0.0635,0.0635 0.17205,0.5287 0.17832,0.53497 0.042,0.042 0.15175,-0.0532 0.17833,0 0.17636,0.35272 0.006,0.90387 0.17832,1.24827 0.0376,0.0752 0.14073,0.10314 0.17833,0.17833 0.052,0.10403 0.0712,1.17707 0,1.24827 -0.042,0.042 -0.1363,-0.042 -0.17833,0 -0.0841,0.0841 0.0532,0.25031 0,0.35664 -0.2719,0.54381 -0.14137,-0.32614 -0.35665,0.53498 -0.10275,0.411 -0.0957,0.50023 -0.35664,0.89162 -0.17588,0.26381 -0.57214,0.43098 -0.7133,0.7133 -0.0266,0.0532 0.042,0.13629 0,0.17832 -0.042,0.042 -0.13629,-0.042 -0.17833,0 -0.094,0.094 -0.0843,0.26266 -0.17832,0.35665 -0.21269,0.21269 -1.01389,0.12227 -1.24827,0.35665 -0.042,0.042 0.042,0.13629 0,0.17832 -0.19992,0.19992 -0.98529,-0.13149 -1.24827,0 -0.52437,0.26219 -1.90178,0.37658 -2.49654,0.17832 -0.12609,-0.042 -0.23055,-0.13629 -0.35665,-0.17832 -0.20205,-0.0674 -0.52433,0.0945 -0.7133,0 -0.38007,-0.19004 -0.94335,-0.7766 -1.42659,-0.53497 -0.26639,0.13319 -0.73623,0.40252 -0.89162,0.71329 -0.0266,0.0532 0.042,0.1363 0,0.17833 -0.0892,0.0892 -0.26749,0.0892 -0.35665,0.17832 -0.36896,0.36896 0.56382,-0.0144 -0.17832,0.35665 -0.0532,0.0266 -0.1363,-0.042 -0.17833,0 -0.042,0.042 0.0266,0.12516 0,0.17833 -0.11942,0.23884 -0.42541,0.24709 -0.53497,0.35664 -0.042,0.042 0.042,0.1363 0,0.17833 -0.042,0.042 -0.12516,-0.0266 -0.17833,0 -0.24575,0.12287 -0.23989,0.41822 -0.35664,0.53497 -0.54562,0.54562 -1.46191,1.26593 -2.1399,1.60492 -0.25382,0.12691 -0.79977,0 -1.06994,0 -0.13963,0 -0.80264,0.089 -0.89162,0 -0.38752,-0.38751 -0.7133,-0.83218 -1.06995,-1.24827 z"
     id="path1"
     inkscape:label="hana" /></svg>
